<svg xmlns="http://www.w3.org/2000/svg" id="canvas" viewBox="292.148 364.726 1363.504 180.797"><path d="M 302.49,379.58 C 302.13 380.19, 301.88 380.80, 301.60 382.76 C 301.33 384.71, 301.26 385.97, 301.12 389.36 C 300.98 392.75, 301.04 395.00, 300.90 399.69 C 300.76 404.38, 300.69 407.28, 300.41 412.80 C 300.14 418.31, 299.94 421.48, 299.53 427.26 C 299.13 433.05, 298.85 436.18, 298.38 441.72 C 297.92 447.27, 297.64 450.15, 297.20 454.99 C 296.75 459.83, 296.52 462.20, 296.17 465.94 C 295.82 469.68, 295.56 471.31, 295.46 473.71 C 295.36 476.11, 295.45 476.98, 295.67 477.94 C 295.89 478.91, 296.15 479.03, 296.55 478.54 C 296.94 478.04, 297.25 477.39, 297.64 475.46 C 298.02 473.53, 298.06 472.08, 298.46 468.91 C 298.85 465.74, 298.89 463.61, 299.62 459.62 C 300.34 455.63, 300.86 453.16, 302.08 448.96 C 303.31 444.76, 304.10 442.41, 305.73 438.62 C 307.36 434.84, 308.34 432.97, 310.23 430.03 C 312.13 427.09, 313.23 425.85, 315.19 423.92 C 317.14 421.98, 318.14 421.25, 320.01 420.36 C 321.88 419.47, 322.82 419.29, 324.53 419.46 C 326.24 419.62, 327.07 419.97, 328.56 421.20 C 330.04 422.42, 330.73 423.35, 331.94 425.59 C 333.14 427.83, 333.81 429.30, 334.58 432.39 C 335.35 435.48, 335.66 437.41, 335.80 441.05 C 335.94 444.69, 335.83 446.80, 335.27 450.59 C 334.71 454.39, 334.19 456.44, 333.00 460.02 C 331.81 463.60, 331.01 465.41, 329.31 468.49 C 327.61 471.57, 326.53 473.02, 324.48 475.41 C 322.42 477.81, 321.21 478.83, 319.03 480.46 C 316.85 482.10, 315.67 482.73, 313.58 483.57 C 311.48 484.41, 310.39 484.61, 308.56 484.65 C 306.73 484.68, 305.85 484.46, 304.45 483.74 C 303.05 483.01, 302.49 482.19, 301.54 481.01 C 300.59 479.84, 300.31 479.00, 299.70 477.86 C 299.08 476.71, 298.91 475.76, 298.48 475.30 C 298.05 474.83, 297.71 474.86, 297.57 475.53 C 297.43 476.20, 297.34 477.25, 297.77 478.65 C 298.20 480.04, 298.58 481.09, 299.73 482.49 C 300.87 483.89, 301.73 484.80, 303.50 485.65 C 305.27 486.50, 306.40 486.76, 308.58 486.75 C 310.76 486.75, 312.01 486.52, 314.38 485.62 C 316.74 484.72, 318.06 484.04, 320.39 482.26 C 322.72 480.48, 323.91 479.28, 326.03 476.71 C 328.14 474.14, 329.22 472.62, 330.96 469.39 C 332.70 466.17, 333.50 464.30, 334.73 460.60 C 335.97 456.90, 336.50 454.80, 337.12 450.87 C 337.73 446.95, 337.88 444.80, 337.82 441.00 C 337.76 437.19, 337.54 435.19, 336.80 431.87 C 336.07 428.55, 335.52 426.86, 334.13 424.38 C 332.75 421.91, 331.76 420.86, 329.87 419.49 C 327.98 418.12, 326.84 417.73, 324.70 417.54 C 322.57 417.35, 321.38 417.58, 319.18 418.56 C 316.98 419.53, 315.80 420.33, 313.70 422.43 C 311.60 424.52, 310.59 425.95, 308.68 429.05 C 306.77 432.15, 305.81 434.06, 304.15 437.94 C 302.49 441.82, 301.69 444.20, 300.38 448.45 C 299.07 452.70, 298.53 455.18, 297.60 459.20 C 296.67 463.22, 296.21 465.32, 295.72 468.53 C 295.23 471.74, 295.13 473.24, 295.15 475.23 C 295.18 477.22, 295.51 477.93, 295.83 478.49 C 296.15 479.04, 296.43 478.93, 296.75 478.00 C 297.07 477.07, 297.22 476.23, 297.44 473.84 C 297.66 471.45, 297.61 469.82, 297.84 466.07 C 298.07 462.32, 298.22 459.95, 298.59 455.10 C 298.95 450.26, 299.21 447.38, 299.66 441.83 C 300.11 436.28, 300.39 433.14, 300.82 427.36 C 301.26 421.57, 301.48 418.40, 301.85 412.88 C 302.23 407.37, 302.36 404.46, 302.68 399.78 C 303.00 395.10, 303.26 392.85, 303.45 389.47 C 303.65 386.10, 303.66 384.86, 303.64 382.89 C 303.63 380.93, 303.62 380.33, 303.39 379.66 C 303.16 379.00, 302.85 378.96, 302.49 379.58" style="stroke: black; fill: black;"/><path d="M 347.78,448.62 C 348.18 448.85, 348.60 449.04, 349.67 448.90 C 350.75 448.76, 351.54 448.69, 353.15 447.91 C 354.75 447.14, 355.80 446.54, 357.69 445.02 C 359.58 443.51, 360.69 442.51, 362.60 440.36 C 364.51 438.21, 365.50 436.83, 367.25 434.27 C 369.00 431.71, 369.93 430.25, 371.37 427.57 C 372.80 424.90, 373.49 423.43, 374.42 420.90 C 375.35 418.37, 375.70 417.07, 376.01 414.93 C 376.31 412.80, 376.32 411.75, 375.93 410.23 C 375.55 408.70, 375.16 407.99, 374.10 407.28 C 373.05 406.58, 372.25 406.32, 370.65 406.69 C 369.06 407.07, 368.01 407.40, 366.13 409.15 C 364.26 410.91, 363.25 412.25, 361.29 415.46 C 359.32 418.66, 358.20 420.80, 356.33 425.17 C 354.46 429.54, 353.41 432.30, 351.95 437.30 C 350.49 442.29, 349.79 445.27, 349.02 450.15 C 348.25 455.04, 348.04 457.61, 348.09 461.71 C 348.15 465.82, 348.38 467.73, 349.28 470.70 C 350.19 473.67, 350.99 474.86, 352.63 476.56 C 354.27 478.25, 355.35 478.76, 357.49 479.18 C 359.63 479.59, 360.93 479.51, 363.32 478.63 C 365.72 477.74, 367.02 476.92, 369.45 474.73 C 371.88 472.54, 373.10 471.03, 375.49 467.67 C 377.88 464.32, 379.13 462.18, 381.42 457.95 C 383.71 453.71, 384.88 451.09, 386.95 446.50 C 389.02 441.91, 390.03 439.25, 391.79 435.01 C 393.54 430.78, 394.45 428.59, 395.73 425.30 C 397.01 422.02, 397.63 420.40, 398.21 418.60 C 398.79 416.80, 398.72 416.19, 398.63 416.31 C 398.54 416.43, 398.11 417.07, 397.77 419.22 C 397.43 421.36, 397.30 423.23, 396.93 427.04 C 396.55 430.86, 396.36 433.63, 395.90 438.29 C 395.45 442.95, 395.15 445.86, 394.66 450.35 C 394.17 454.85, 393.82 457.20, 393.45 460.76 C 393.07 464.33, 392.81 465.89, 392.78 468.17 C 392.75 470.45, 392.89 471.28, 393.28 472.16 C 393.67 473.05, 394.05 473.20, 394.72 472.61 C 395.39 472.02, 395.89 471.39, 396.63 469.21 C 397.36 467.03, 397.51 465.39, 398.39 461.71 C 399.26 458.04, 399.68 455.47, 401.01 450.84 C 402.35 446.21, 403.26 443.22, 405.06 438.58 C 406.87 433.95, 408.03 431.35, 410.03 427.67 C 412.02 423.99, 413.26 422.42, 415.02 420.18 C 416.79 417.94, 417.58 417.21, 418.86 416.45 C 420.15 415.69, 420.61 415.67, 421.46 416.39 C 422.30 417.11, 422.48 417.88, 423.09 420.07 C 423.71 422.26, 424.08 423.85, 424.54 427.34 C 425.00 430.82, 425.21 433.19, 425.40 437.48 C 425.58 441.76, 425.53 444.42, 425.46 448.75 C 425.39 453.09, 425.17 455.46, 425.06 459.13 C 424.95 462.81, 424.78 464.56, 424.91 467.12 C 425.04 469.67, 425.39 470.95, 425.70 471.90 C 426.01 472.84, 426.25 472.81, 426.46 471.85 C 426.66 470.90, 426.61 469.64, 426.71 467.11 C 426.81 464.57, 426.86 462.86, 426.97 459.19 C 427.07 455.53, 427.18 453.14, 427.25 448.78 C 427.32 444.43, 427.41 441.76, 427.33 437.42 C 427.24 433.07, 427.23 430.68, 426.82 427.06 C 426.42 423.44, 426.21 421.69, 425.29 419.33 C 424.38 416.97, 423.66 416.10, 422.24 415.25 C 420.83 414.41, 419.96 414.38, 418.21 415.12 C 416.46 415.86, 415.42 416.59, 413.49 418.94 C 411.56 421.30, 410.54 423.07, 408.56 426.89 C 406.57 430.70, 405.42 433.31, 403.57 438.00 C 401.72 442.68, 400.79 445.69, 399.30 450.32 C 397.81 454.94, 397.13 457.47, 396.11 461.12 C 395.08 464.76, 394.61 466.34, 394.16 468.55 C 393.71 470.76, 393.86 471.48, 393.88 472.18 C 393.89 472.88, 394.08 472.82, 394.26 472.04 C 394.43 471.26, 394.55 470.50, 394.77 468.28 C 394.98 466.06, 395.00 464.49, 395.32 460.95 C 395.65 457.40, 395.89 455.03, 396.38 450.54 C 396.87 446.05, 397.22 443.15, 397.79 438.49 C 398.36 433.84, 398.81 431.11, 399.22 427.28 C 399.64 423.45, 399.94 421.59, 399.86 419.34 C 399.78 417.10, 399.46 416.32, 398.83 416.04 C 398.20 415.76, 397.68 416.22, 396.70 417.94 C 395.73 419.65, 395.25 421.32, 393.97 424.62 C 392.70 427.92, 392.01 430.17, 390.33 434.42 C 388.64 438.67, 387.63 441.32, 385.56 445.87 C 383.50 450.42, 382.31 453.02, 379.99 457.16 C 377.67 461.30, 376.38 463.38, 373.97 466.56 C 371.56 469.73, 370.24 471.03, 367.94 473.03 C 365.65 475.03, 364.53 475.69, 362.50 476.56 C 360.48 477.42, 359.52 477.60, 357.81 477.36 C 356.09 477.11, 355.26 476.77, 353.92 475.32 C 352.59 473.88, 351.95 472.87, 351.11 470.14 C 350.27 467.41, 349.84 465.63, 349.72 461.68 C 349.60 457.73, 349.76 455.17, 350.50 450.39 C 351.24 445.60, 351.93 442.63, 353.41 437.73 C 354.90 432.83, 355.98 430.09, 357.92 425.88 C 359.87 421.66, 361.14 419.62, 363.14 416.65 C 365.15 413.68, 366.31 412.64, 367.93 411.01 C 369.55 409.38, 370.18 409.02, 371.25 408.51 C 372.32 408.01, 372.70 408.09, 373.28 408.49 C 373.85 408.90, 374.02 409.34, 374.13 410.55 C 374.23 411.76, 374.21 412.65, 373.82 414.55 C 373.42 416.45, 373.06 417.67, 372.14 420.04 C 371.22 422.41, 370.60 423.86, 369.22 426.41 C 367.83 428.97, 366.94 430.42, 365.20 432.83 C 363.46 435.24, 362.39 436.48, 360.52 438.46 C 358.65 440.44, 357.60 441.34, 355.86 442.74 C 354.12 444.14, 353.17 444.62, 351.81 445.46 C 350.45 446.30, 349.90 446.49, 349.07 446.94 C 348.23 447.39, 347.90 447.37, 347.64 447.71 C 347.38 448.05, 347.37 448.38, 347.78 448.62" style="stroke: black; fill: black;"/><path d="M 445.19,415.23 C 444.90 415.75, 444.78 416.16, 444.60 417.84 C 444.41 419.53, 444.30 420.65, 444.26 423.66 C 444.23 426.66, 444.43 428.76, 444.42 432.85 C 444.42 436.95, 444.41 439.65, 444.24 444.14 C 444.06 448.62, 443.87 451.23, 443.54 455.30 C 443.21 459.37, 442.88 461.40, 442.59 464.49 C 442.30 467.58, 442.11 468.93, 442.09 470.76 C 442.07 472.58, 442.20 473.23, 442.49 473.63 C 442.78 474.03, 443.08 473.91, 443.54 472.76 C 444.00 471.61, 444.35 470.66, 444.79 467.89 C 445.23 465.12, 445.10 463.06, 445.75 458.92 C 446.39 454.78, 446.79 451.98, 448.01 447.18 C 449.24 442.39, 450.12 439.46, 451.89 434.93 C 453.66 430.39, 454.84 427.99, 456.87 424.49 C 458.90 420.99, 460.16 419.55, 462.05 417.43 C 463.94 415.31, 464.84 414.63, 466.30 413.90 C 467.77 413.17, 468.36 413.16, 469.39 413.78 C 470.41 414.41, 470.67 415.01, 471.42 417.02 C 472.17 419.02, 472.55 420.46, 473.14 423.80 C 473.73 427.15, 474.04 429.43, 474.36 433.73 C 474.69 438.03, 474.70 440.73, 474.78 445.31 C 474.86 449.89, 474.77 452.46, 474.78 456.63 C 474.79 460.79, 474.70 462.85, 474.85 466.14 C 475.00 469.42, 475.07 470.82, 475.53 473.05 C 475.99 475.28, 476.32 476.10, 477.15 477.28 C 477.98 478.45, 478.53 478.80, 479.68 478.94 C 480.84 479.07, 481.55 478.89, 482.93 477.94 C 484.32 476.98, 485.10 476.28, 486.59 474.14 C 488.09 472.00, 488.80 470.50, 490.42 467.25 C 492.05 464.00, 492.94 461.98, 494.72 457.90 C 496.50 453.82, 497.53 451.34, 499.32 446.86 C 501.11 442.37, 502.08 439.79, 503.67 435.48 C 505.26 431.18, 506.06 428.97, 507.25 425.34 C 508.44 421.70, 509.05 420.03, 509.62 417.31 C 510.18 414.60, 510.26 413.47, 510.09 411.76 C 509.91 410.05, 509.63 409.42, 508.75 408.77 C 507.87 408.12, 507.12 407.95, 505.70 408.53 C 504.28 409.12, 503.23 409.62, 501.65 411.68 C 500.08 413.75, 499.27 415.33, 497.82 418.85 C 496.38 422.38, 495.61 424.74, 494.44 429.31 C 493.26 433.89, 492.64 436.76, 491.95 441.72 C 491.25 446.68, 491.02 449.50, 490.96 454.11 C 490.89 458.73, 491.02 461.05, 491.63 464.78 C 492.24 468.50, 492.69 470.17, 494.01 472.75 C 495.33 475.32, 496.29 476.30, 498.23 477.66 C 500.17 479.02, 501.34 479.44, 503.70 479.55 C 506.07 479.66, 507.48 479.47, 510.05 478.21 C 512.62 476.95, 513.92 475.92, 516.55 473.25 C 519.17 470.57, 520.51 468.87, 523.15 464.83 C 525.80 460.80, 527.19 458.30, 529.76 453.08 C 532.33 447.85, 533.61 444.75, 536.00 438.71 C 538.39 432.67, 539.55 429.19, 541.70 422.86 C 543.86 416.53, 544.93 413.08, 546.77 407.06 C 548.61 401.03, 549.47 397.94, 550.91 392.75 C 552.35 387.56, 553.00 385.05, 553.97 381.12 C 554.95 377.18, 555.46 375.52, 555.81 373.08 C 556.16 370.64, 556.02 369.75, 555.72 368.92 C 555.42 368.10, 554.96 368.04, 554.30 368.95 C 553.63 369.86, 553.00 370.69, 552.40 373.48 C 551.80 376.26, 551.79 378.29, 551.31 382.88 C 550.83 387.48, 550.55 390.48, 549.99 396.47 C 549.42 402.46, 549.05 406.10, 548.47 412.81 C 547.90 419.52, 547.59 423.35, 547.12 430.02 C 546.66 436.70, 546.44 440.19, 546.16 446.19 C 545.88 452.18, 545.79 455.09, 545.70 459.99 C 545.61 464.88, 545.60 467.09, 545.72 470.66 C 545.85 474.24, 545.98 475.78, 546.31 477.87 C 546.64 479.95, 546.96 480.40, 547.38 481.09 C 547.79 481.77, 548.10 481.48, 548.38 481.29 C 548.67 481.09, 548.87 480.38, 548.78 480.12 C 548.69 479.86, 548.09 479.81, 547.93 480.00 C 547.78 480.19, 547.95 480.91, 548.02 481.08 C 548.09 481.24, 548.28 481.50, 548.30 480.82 C 548.31 480.13, 548.28 479.70, 548.10 477.65 C 547.92 475.60, 547.61 474.11, 547.39 470.58 C 547.18 467.05, 547.03 464.86, 547.01 460.00 C 547.00 455.13, 547.06 452.22, 547.31 446.24 C 547.55 440.26, 547.76 436.76, 548.22 430.10 C 548.69 423.43, 549.01 419.61, 549.64 412.92 C 550.27 406.22, 550.65 402.57, 551.37 396.62 C 552.08 390.66, 552.48 387.67, 553.20 383.13 C 553.93 378.60, 554.56 376.72, 555.00 373.96 C 555.43 371.20, 555.39 370.32, 555.38 369.32 C 555.37 368.31, 555.23 368.24, 554.94 368.93 C 554.66 369.62, 554.45 370.39, 553.96 372.76 C 553.47 375.12, 553.33 376.84, 552.48 380.77 C 551.63 384.71, 551.07 387.23, 549.71 392.42 C 548.35 397.62, 547.50 400.72, 545.69 406.73 C 543.88 412.75, 542.82 416.20, 540.66 422.51 C 538.50 428.82, 537.33 432.28, 534.92 438.28 C 532.50 444.27, 531.19 447.35, 528.57 452.48 C 525.96 457.61, 524.51 460.07, 521.83 463.94 C 519.14 467.81, 517.71 469.39, 515.15 471.83 C 512.59 474.27, 511.30 474.99, 509.02 476.14 C 506.74 477.29, 505.70 477.57, 503.75 477.57 C 501.81 477.57, 500.89 477.30, 499.30 476.16 C 497.70 475.01, 496.98 474.17, 495.78 471.84 C 494.59 469.50, 493.98 468.03, 493.33 464.48 C 492.68 460.94, 492.49 458.64, 492.53 454.13 C 492.56 449.62, 492.78 446.81, 493.50 441.94 C 494.23 437.07, 494.87 434.22, 496.14 429.78 C 497.41 425.34, 498.33 423.05, 499.87 419.74 C 501.40 416.44, 502.46 415.19, 503.80 413.25 C 505.14 411.31, 505.72 410.78, 506.58 410.05 C 507.44 409.32, 507.73 409.24, 508.10 409.59 C 508.47 409.93, 508.56 410.34, 508.45 411.80 C 508.34 413.25, 508.13 414.27, 507.55 416.87 C 506.98 419.47, 506.65 421.20, 505.57 424.81 C 504.49 428.43, 503.72 430.65, 502.17 434.94 C 500.62 439.22, 499.64 441.81, 497.83 446.25 C 496.01 450.69, 494.95 453.16, 493.07 457.15 C 491.19 461.14, 490.17 463.10, 488.42 466.18 C 486.68 469.27, 485.70 470.55, 484.33 472.59 C 482.96 474.62, 482.49 475.34, 481.57 476.35 C 480.66 477.37, 480.38 477.62, 479.76 477.65 C 479.13 477.69, 478.90 477.50, 478.44 476.51 C 477.98 475.52, 477.78 474.80, 477.46 472.70 C 477.13 470.60, 477.00 469.25, 476.81 466.03 C 476.62 462.81, 476.57 460.76, 476.51 456.61 C 476.44 452.46, 476.54 449.88, 476.49 445.28 C 476.44 440.68, 476.48 437.98, 476.27 433.61 C 476.05 429.24, 475.96 426.92, 475.40 423.42 C 474.84 419.93, 474.52 418.33, 473.45 416.14 C 472.39 413.95, 471.63 413.23, 470.07 412.48 C 468.52 411.74, 467.56 411.70, 465.67 412.42 C 463.77 413.15, 462.63 413.86, 460.59 416.11 C 458.54 418.36, 457.46 420.03, 455.43 423.68 C 453.40 427.33, 452.25 429.74, 450.44 434.36 C 448.63 438.97, 447.75 441.91, 446.39 446.75 C 445.04 451.59, 444.54 454.39, 443.66 458.54 C 442.77 462.69, 442.29 464.69, 441.97 467.50 C 441.64 470.31, 441.84 471.36, 442.04 472.59 C 442.24 473.83, 442.57 474.01, 442.94 473.68 C 443.31 473.35, 443.55 472.74, 443.90 470.94 C 444.24 469.14, 444.37 467.79, 444.66 464.68 C 444.95 461.58, 445.06 459.52, 445.34 455.43 C 445.62 451.34, 445.81 448.73, 446.05 444.22 C 446.30 439.71, 446.36 437.01, 446.55 432.90 C 446.73 428.79, 446.95 426.69, 446.96 423.68 C 446.98 420.67, 446.81 419.53, 446.62 417.84 C 446.44 416.16, 446.34 415.76, 446.05 415.23 C 445.76 414.71, 445.48 414.71, 445.19 415.23" style="stroke: black; fill: black;"/><path d="M 534.55,429.73 C 534.86 430.04, 535.10 430.27, 536.13 430.41 C 537.16 430.55, 537.90 430.69, 539.71 430.43 C 541.53 430.16, 542.77 430.00, 545.20 429.08 C 547.62 428.15, 549.12 427.43, 551.84 425.78 C 554.56 424.14, 556.13 423.15, 558.80 420.85 C 561.47 418.55, 564.10 415.81, 565.20 414.30 C 566.30 412.80, 565.85 412.36, 564.29 413.32 C 562.72 414.27, 560.12 417.03, 557.38 419.08 C 554.63 421.13, 553.21 422.13, 550.56 423.57 C 547.92 425.02, 546.45 425.48, 544.17 426.30 C 541.89 427.12, 540.79 427.24, 539.16 427.66 C 537.53 428.09, 536.93 428.16, 536.02 428.40 C 535.11 428.65, 534.90 428.61, 534.61 428.88 C 534.32 429.14, 534.25 429.43, 534.55 429.73" style="stroke: black; fill: black;"/><path d="M 581.96,367.95 C 581.58 368.32, 581.31 368.49, 580.84 370.00 C 580.37 371.51, 580.05 372.41, 579.63 375.50 C 579.20 378.60, 579.17 380.70, 578.73 385.46 C 578.30 390.22, 578.00 393.32, 577.44 399.31 C 576.88 405.29, 576.53 408.95, 575.93 415.39 C 575.32 421.84, 574.94 425.40, 574.40 431.53 C 573.86 437.66, 573.60 440.81, 573.22 446.04 C 572.84 451.27, 572.69 453.70, 572.51 457.69 C 572.33 461.68, 572.21 463.38, 572.33 466.00 C 572.45 468.61, 572.79 469.41, 573.09 470.76 C 573.39 472.12, 573.58 472.37, 573.82 472.75 C 574.07 473.13, 574.21 473.09, 574.31 472.66 C 574.41 472.24, 574.33 471.97, 574.32 470.62 C 574.31 469.28, 574.30 468.51, 574.25 465.93 C 574.19 463.35, 574.00 461.70, 574.05 457.74 C 574.10 453.77, 574.19 451.35, 574.49 446.12 C 574.80 440.90, 575.05 437.76, 575.58 431.63 C 576.10 425.51, 576.48 421.95, 577.12 415.51 C 577.77 409.07, 578.14 405.42, 578.81 399.45 C 579.49 393.48, 579.84 390.38, 580.50 385.66 C 581.17 380.94, 581.68 378.91, 582.12 375.85 C 582.56 372.79, 582.58 371.90, 582.70 370.36 C 582.83 368.82, 582.89 368.65, 582.74 368.16 C 582.59 367.68, 582.34 367.58, 581.96 367.95" style="stroke: black; fill: black;"/><path d="M 561.02,428.80 C 561.32 429.02, 561.41 429.13, 562.36 429.16 C 563.31 429.19, 563.95 429.22, 565.77 428.96 C 567.59 428.70, 568.82 428.51, 571.47 427.87 C 574.11 427.22, 575.79 426.69, 578.99 425.74 C 582.19 424.79, 584.07 424.20, 587.47 423.12 C 590.88 422.03, 592.73 421.42, 596.03 420.30 C 599.33 419.18, 601.03 418.60, 603.96 417.51 C 606.90 416.42, 608.36 415.89, 610.70 414.86 C 613.05 413.83, 614.13 413.34, 615.68 412.38 C 617.24 411.41, 617.87 410.93, 618.50 410.05 C 619.13 409.18, 619.19 408.63, 618.82 407.99 C 618.45 407.36, 617.90 406.92, 616.64 406.88 C 615.38 406.84, 614.39 406.90, 612.54 407.81 C 610.69 408.72, 609.47 409.36, 607.38 411.44 C 605.30 413.52, 604.17 414.97, 602.11 418.21 C 600.06 421.44, 598.88 423.52, 597.11 427.61 C 595.34 431.70, 594.43 434.25, 593.26 438.65 C 592.09 443.06, 591.64 445.59, 591.24 449.64 C 590.84 453.69, 590.81 455.75, 591.25 458.91 C 591.70 462.08, 592.24 463.46, 593.46 465.46 C 594.68 467.47, 595.61 468.15, 597.35 468.95 C 599.08 469.74, 600.17 469.81, 602.15 469.43 C 604.12 469.05, 605.27 468.57, 607.22 467.04 C 609.18 465.51, 610.23 464.42, 611.93 461.78 C 613.62 459.14, 614.40 457.41, 615.71 453.86 C 617.03 450.32, 617.62 448.10, 618.49 444.06 C 619.35 440.02, 619.67 437.64, 620.05 433.68 C 620.44 429.72, 620.52 427.61, 620.43 424.27 C 620.33 420.94, 620.09 419.38, 619.56 417.01 C 619.04 414.63, 618.55 413.76, 617.79 412.39 C 617.03 411.01, 616.46 410.70, 615.75 410.12 C 615.04 409.55, 614.61 409.54, 614.24 409.52 C 613.87 409.50, 613.80 409.73, 613.92 410.02 C 614.04 410.32, 614.39 410.38, 614.84 411.00 C 615.30 411.63, 615.66 411.88, 616.19 413.16 C 616.73 414.45, 617.08 415.20, 617.52 417.43 C 617.95 419.67, 618.24 421.13, 618.38 424.34 C 618.51 427.56, 618.53 429.64, 618.19 433.50 C 617.84 437.37, 617.52 439.73, 616.63 443.65 C 615.75 447.57, 615.12 449.75, 613.76 453.11 C 612.41 456.47, 611.48 458.02, 609.87 460.43 C 608.25 462.84, 607.33 463.77, 605.69 465.17 C 604.06 466.58, 603.22 467.04, 601.69 467.48 C 600.16 467.91, 599.38 467.96, 598.06 467.37 C 596.73 466.78, 596.04 466.28, 595.07 464.53 C 594.10 462.78, 593.64 461.58, 593.22 458.63 C 592.80 455.69, 592.65 453.71, 592.98 449.80 C 593.32 445.89, 593.74 443.38, 594.89 439.09 C 596.05 434.80, 596.96 432.28, 598.75 428.34 C 600.55 424.40, 601.76 422.37, 603.88 419.40 C 605.99 416.42, 607.34 415.30, 609.33 413.47 C 611.33 411.64, 612.34 411.15, 613.86 410.23 C 615.38 409.31, 616.07 409.22, 616.94 408.86 C 617.80 408.51, 618.07 408.43, 618.18 408.46 C 618.29 408.48, 618.17 408.58, 617.47 409.00 C 616.77 409.42, 616.21 409.80, 614.68 410.55 C 613.14 411.30, 612.09 411.77, 609.79 412.75 C 607.49 413.73, 606.07 414.34, 603.19 415.46 C 600.30 416.57, 598.63 417.22, 595.36 418.34 C 592.09 419.46, 590.25 420.06, 586.84 421.07 C 583.44 422.07, 581.56 422.60, 578.35 423.37 C 575.14 424.13, 573.42 424.33, 570.79 424.89 C 568.16 425.44, 566.95 425.67, 565.19 426.15 C 563.43 426.62, 562.86 426.89, 562.00 427.26 C 561.14 427.64, 561.09 427.73, 560.90 428.03 C 560.70 428.34, 560.73 428.57, 561.02 428.80" style="stroke: black; fill: black;"/><path d="M 637.51,409.68 C 637.17 410.15, 637.01 410.53, 636.69 412.11 C 636.36 413.70, 636.11 414.75, 635.89 417.60 C 635.68 420.44, 635.78 422.41, 635.60 426.32 C 635.41 430.24, 635.29 432.79, 634.97 437.18 C 634.66 441.56, 634.44 444.16, 634.03 448.23 C 633.62 452.30, 633.27 454.41, 632.94 457.53 C 632.62 460.64, 632.43 462.00, 632.41 463.81 C 632.38 465.61, 632.52 466.22, 632.83 466.55 C 633.14 466.88, 633.47 466.70, 633.95 465.46 C 634.44 464.22, 634.76 463.17, 635.26 460.35 C 635.77 457.53, 635.71 455.44, 636.49 451.35 C 637.27 447.25, 637.78 444.49, 639.17 439.87 C 640.56 435.26, 641.50 432.46, 643.44 428.26 C 645.38 424.05, 646.66 421.89, 648.86 418.85 C 651.07 415.80, 652.40 414.65, 654.47 413.02 C 656.53 411.39, 657.51 410.95, 659.19 410.70 C 660.88 410.45, 661.63 410.68, 662.89 411.78 C 664.15 412.87, 664.59 413.77, 665.50 416.16 C 666.40 418.55, 666.89 420.20, 667.42 423.73 C 667.96 427.25, 668.07 429.59, 668.16 433.78 C 668.25 437.97, 668.08 440.50, 667.86 444.68 C 667.65 448.85, 667.34 451.11, 667.10 454.68 C 666.85 458.25, 666.60 459.96, 666.65 462.53 C 666.71 465.10, 667.03 466.05, 667.37 467.53 C 667.70 469.00, 667.91 469.29, 668.32 469.89 C 668.74 470.49, 669.09 470.48, 669.44 470.52 C 669.79 470.57, 670.01 470.28, 670.08 470.12 C 670.14 469.95, 669.88 469.75, 669.78 469.71 C 669.68 469.67, 669.67 469.97, 669.58 469.91 C 669.50 469.85, 669.48 469.94, 669.37 469.41 C 669.26 468.88, 669.16 468.64, 669.04 467.26 C 668.93 465.88, 668.79 465.00, 668.79 462.51 C 668.79 460.01, 668.86 458.34, 669.03 454.79 C 669.21 451.24, 669.47 448.97, 669.67 444.77 C 669.88 440.56, 670.08 438.02, 670.06 433.75 C 670.04 429.49, 670.03 427.13, 669.57 423.43 C 669.10 419.73, 668.84 417.88, 667.72 415.26 C 666.61 412.65, 665.74 411.61, 663.99 410.36 C 662.24 409.12, 661.14 408.83, 658.99 409.04 C 656.84 409.26, 655.55 409.68, 653.24 411.44 C 650.93 413.20, 649.71 414.62, 647.46 417.85 C 645.20 421.08, 643.96 423.28, 641.97 427.58 C 639.99 431.89, 639.05 434.70, 637.54 439.36 C 636.03 444.03, 635.42 446.78, 634.41 450.89 C 633.40 455.00, 632.89 457.03, 632.48 459.90 C 632.07 462.77, 632.22 463.91, 632.36 465.24 C 632.50 466.58, 632.82 466.83, 633.18 466.58 C 633.54 466.33, 633.80 465.77, 634.18 464.00 C 634.55 462.24, 634.71 460.87, 635.05 457.75 C 635.38 454.63, 635.50 452.49, 635.86 448.40 C 636.22 444.32, 636.45 441.71, 636.84 437.32 C 637.22 432.94, 637.41 430.39, 637.79 426.48 C 638.17 422.58, 638.54 420.64, 638.72 417.80 C 638.90 414.95, 638.78 413.88, 638.71 412.28 C 638.64 410.67, 638.61 410.28, 638.37 409.76 C 638.14 409.24, 637.85 409.20, 637.51 409.68" style="stroke: black; fill: black;"/><path d="M 710.42,414.59 C 710.81 414.33, 711.06 413.89, 711.29 413.13 C 711.53 412.36, 711.71 411.77, 711.61 410.76 C 711.52 409.74, 711.40 408.95, 710.82 408.05 C 710.23 407.15, 709.76 406.65, 708.67 406.24 C 707.58 405.84, 706.89 405.66, 705.37 406.05 C 703.85 406.43, 702.91 406.68, 701.07 408.18 C 699.22 409.69, 698.14 410.76, 696.14 413.57 C 694.14 416.38, 693.06 418.26, 691.08 422.23 C 689.10 426.20, 687.96 428.75, 686.25 433.44 C 684.53 438.12, 683.66 440.98, 682.50 445.65 C 681.33 450.33, 680.91 452.89, 680.42 456.82 C 679.94 460.74, 679.80 462.54, 680.06 465.28 C 680.32 468.01, 680.79 469.04, 681.73 470.49 C 682.66 471.94, 683.39 472.33, 684.74 472.53 C 686.09 472.72, 686.95 472.52, 688.49 471.44 C 690.04 470.37, 690.93 469.55, 692.46 467.14 C 693.99 464.73, 694.63 463.02, 696.14 459.39 C 697.66 455.75, 698.48 453.39, 700.04 448.98 C 701.60 444.56, 702.45 441.78, 703.95 437.31 C 705.44 432.83, 706.29 430.28, 707.52 426.59 C 708.75 422.90, 709.46 421.04, 710.09 418.88 C 710.73 416.71, 710.70 415.92, 710.68 415.77 C 710.67 415.62, 710.28 416.20, 710.00 418.12 C 709.72 420.05, 709.54 421.80, 709.29 425.39 C 709.05 428.99, 708.96 431.62, 708.77 436.10 C 708.58 440.58, 708.48 443.38, 708.35 447.78 C 708.22 452.18, 708.08 454.49, 708.11 458.10 C 708.13 461.71, 708.10 463.37, 708.46 465.82 C 708.83 468.27, 709.17 469.16, 709.92 470.35 C 710.66 471.54, 711.16 471.82, 712.18 471.75 C 713.20 471.69, 713.88 471.41, 715.02 470.03 C 716.16 468.66, 716.77 467.63, 717.89 464.87 C 719.01 462.11, 719.38 460.17, 720.62 456.22 C 721.86 452.28, 722.58 449.70, 724.07 445.13 C 725.56 440.57, 726.42 437.78, 728.06 433.39 C 729.69 429.00, 730.66 426.62, 732.25 423.16 C 733.84 419.69, 734.78 418.21, 736.01 416.06 C 737.24 413.92, 737.70 413.03, 738.38 412.41 C 739.07 411.80, 739.18 411.87, 739.45 412.98 C 739.72 414.09, 739.59 415.19, 739.75 417.97 C 739.90 420.76, 740.17 422.86, 740.22 426.91 C 740.27 430.97, 740.18 433.70, 739.99 438.26 C 739.79 442.81, 739.55 445.50, 739.23 449.69 C 738.91 453.88, 738.61 455.99, 738.38 459.21 C 738.15 462.43, 738.01 463.80, 738.09 465.78 C 738.16 467.77, 738.33 468.48, 738.77 469.13 C 739.22 469.79, 739.64 469.83, 740.33 469.05 C 741.02 468.28, 741.50 467.57, 742.22 465.23 C 742.93 462.90, 743.02 461.15, 743.91 457.37 C 744.79 453.59, 745.28 450.97, 746.63 446.35 C 747.98 441.72, 748.89 438.81, 750.67 434.25 C 752.44 429.70, 753.56 427.19, 755.51 423.58 C 757.45 419.96, 758.65 418.40, 760.40 416.16 C 762.16 413.93, 762.96 413.23, 764.30 412.39 C 765.63 411.54, 766.16 411.49, 767.08 411.93 C 768.00 412.37, 768.25 412.85, 768.90 414.61 C 769.55 416.37, 769.82 417.66, 770.32 420.73 C 770.83 423.80, 771.13 425.91, 771.42 429.95 C 771.70 433.99, 771.72 436.55, 771.75 440.94 C 771.79 445.32, 771.66 447.85, 771.59 451.89 C 771.53 455.93, 771.34 457.96, 771.41 461.13 C 771.49 464.30, 771.65 465.64, 771.97 467.73 C 772.29 469.82, 772.58 470.50, 773.02 471.60 C 773.46 472.70, 773.76 472.86, 774.17 473.22 C 774.58 473.58, 774.84 473.44, 775.05 473.41 C 775.26 473.37, 775.25 473.19, 775.21 473.05 C 775.18 472.91, 775.02 473.07, 774.87 472.69 C 774.73 472.32, 774.69 472.20, 774.50 471.16 C 774.31 470.12, 774.11 469.50, 773.90 467.48 C 773.70 465.46, 773.56 464.19, 773.46 461.07 C 773.36 457.96, 773.38 455.94, 773.40 451.91 C 773.42 447.88, 773.55 445.35, 773.56 440.93 C 773.57 436.52, 773.61 433.96, 773.45 429.84 C 773.30 425.72, 773.30 423.55, 772.77 420.33 C 772.25 417.10, 771.87 415.66, 770.83 413.72 C 769.80 411.79, 769.06 411.21, 767.60 410.67 C 766.14 410.12, 765.28 410.15, 763.53 411.00 C 761.78 411.85, 760.75 412.57, 758.85 414.93 C 756.95 417.28, 755.96 419.05, 754.02 422.79 C 752.09 426.54, 750.99 429.06, 749.17 433.67 C 747.36 438.27, 746.44 441.20, 744.94 445.83 C 743.44 450.45, 742.74 453.04, 741.68 456.79 C 740.61 460.54, 740.10 462.21, 739.61 464.56 C 739.12 466.92, 739.23 467.70, 739.22 468.58 C 739.20 469.46, 739.38 469.49, 739.54 468.94 C 739.69 468.39, 739.80 467.75, 739.97 465.83 C 740.15 463.91, 740.19 462.55, 740.40 459.35 C 740.60 456.14, 740.72 454.02, 741.00 449.82 C 741.28 445.62, 741.53 442.93, 741.81 438.35 C 742.08 433.77, 742.28 431.05, 742.39 426.93 C 742.50 422.81, 742.70 420.66, 742.36 417.75 C 742.02 414.83, 741.59 413.62, 740.68 412.36 C 739.78 411.11, 739.10 410.93, 737.83 411.46 C 736.55 411.99, 735.73 412.81, 734.29 415.01 C 732.85 417.20, 732.18 418.87, 730.63 422.43 C 729.07 426.00, 728.16 428.39, 726.53 432.82 C 724.89 437.25, 724.02 440.04, 722.45 444.59 C 720.88 449.14, 720.10 451.71, 718.67 455.56 C 717.25 459.41, 716.42 461.17, 715.34 463.83 C 714.25 466.50, 713.92 467.49, 713.25 468.88 C 712.59 470.27, 712.44 470.61, 712.02 470.78 C 711.61 470.96, 711.48 470.80, 711.17 469.76 C 710.86 468.72, 710.72 467.90, 710.48 465.57 C 710.25 463.23, 710.08 461.62, 710.01 458.08 C 709.94 454.53, 709.99 452.21, 710.14 447.83 C 710.29 443.46, 710.46 440.67, 710.77 436.21 C 711.08 431.75, 711.46 429.16, 711.69 425.55 C 711.91 421.93, 712.09 420.17, 711.88 418.15 C 711.66 416.13, 711.31 415.43, 710.61 415.45 C 709.90 415.46, 709.33 416.11, 708.36 418.23 C 707.39 420.34, 706.96 422.30, 705.76 426.01 C 704.56 429.73, 703.84 432.31, 702.37 436.78 C 700.89 441.25, 700.02 444.02, 698.39 448.37 C 696.76 452.72, 695.86 455.07, 694.22 458.53 C 692.58 462.00, 691.58 463.44, 690.17 465.71 C 688.77 467.98, 688.24 468.77, 687.18 469.87 C 686.12 470.97, 685.70 471.23, 684.87 471.20 C 684.04 471.18, 683.60 470.97, 683.04 469.75 C 682.48 468.53, 682.24 467.66, 682.06 465.11 C 681.88 462.56, 681.74 460.83, 682.14 457.01 C 682.53 453.19, 682.90 450.63, 684.03 446.03 C 685.15 441.43, 686.02 438.59, 687.76 434.00 C 689.50 429.41, 690.67 426.89, 692.73 423.08 C 694.78 419.28, 696.04 417.56, 698.04 414.98 C 700.05 412.41, 701.15 411.58, 702.75 410.22 C 704.36 408.86, 705.00 408.61, 706.05 408.18 C 707.10 407.75, 707.48 407.89, 708.01 408.07 C 708.53 408.25, 708.54 408.52, 708.69 409.11 C 708.83 409.69, 708.70 410.22, 708.75 410.99 C 708.80 411.76, 708.80 412.25, 708.93 412.94 C 709.05 413.63, 709.07 414.11, 709.37 414.44 C 709.67 414.77, 710.04 414.85, 710.42 414.59" style="stroke: black; fill: black;"/><path d="M 812.82,421.16 C 813.14 420.72, 813.35 420.09, 813.36 419.03 C 813.38 417.97, 813.39 417.12, 812.90 415.87 C 812.41 414.62, 811.98 413.69, 810.91 412.78 C 809.83 411.86, 809.10 411.43, 807.52 411.30 C 805.94 411.16, 804.96 411.15, 803.01 412.11 C 801.05 413.06, 799.84 413.78, 797.73 416.07 C 795.62 418.36, 794.49 420.06, 792.46 423.56 C 790.42 427.07, 789.27 429.39, 787.55 433.60 C 785.83 437.81, 784.96 440.43, 783.87 444.61 C 782.78 448.79, 782.31 451.09, 782.08 454.50 C 781.84 457.92, 781.99 459.50, 782.69 461.69 C 783.39 463.89, 784.13 464.64, 785.57 465.48 C 787.02 466.32, 788.04 466.36, 789.92 465.89 C 791.80 465.42, 792.97 464.84, 794.95 463.11 C 796.93 461.39, 797.93 460.09, 799.83 457.26 C 801.72 454.42, 802.66 452.53, 804.41 448.94 C 806.17 445.36, 807.07 443.10, 808.60 439.35 C 810.14 435.60, 810.94 433.42, 812.10 430.20 C 813.26 426.97, 813.86 425.32, 814.42 423.21 C 814.99 421.11, 814.95 420.16, 814.94 419.66 C 814.93 419.17, 814.60 419.36, 814.38 420.73 C 814.16 422.10, 813.95 423.36, 813.86 426.51 C 813.76 429.67, 813.92 431.82, 813.91 436.48 C 813.90 441.13, 813.90 444.11, 813.81 449.78 C 813.73 455.46, 813.66 458.75, 813.48 464.86 C 813.30 470.96, 813.19 474.23, 812.92 480.30 C 812.64 486.37, 812.52 489.53, 812.11 495.21 C 811.70 500.90, 811.50 503.74, 810.88 508.73 C 810.26 513.72, 809.90 516.10, 809.03 520.16 C 808.16 524.23, 807.67 526.04, 806.53 529.06 C 805.40 532.08, 804.73 533.30, 803.36 535.27 C 801.98 537.24, 801.27 537.90, 799.64 538.90 C 798.01 539.91, 797.11 540.13, 795.20 540.27 C 793.30 540.41, 792.24 540.25, 790.10 539.59 C 787.97 538.92, 786.75 538.33, 784.53 536.94 C 782.31 535.55, 781.06 534.66, 779.01 532.64 C 776.96 530.61, 775.88 529.36, 774.27 526.82 C 772.66 524.28, 771.91 522.82, 770.95 519.95 C 769.99 517.08, 769.65 515.51, 769.48 512.47 C 769.31 509.42, 769.41 507.85, 770.11 504.71 C 770.81 501.56, 771.37 499.91, 772.98 496.74 C 774.58 493.57, 775.65 491.91, 778.11 488.84 C 780.58 485.76, 782.10 484.21, 785.29 481.36 C 788.47 478.50, 790.36 477.10, 794.04 474.58 C 797.73 472.06, 799.85 470.86, 803.72 468.73 C 807.59 466.61, 809.67 465.65, 813.40 463.96 C 817.12 462.28, 819.20 461.49, 822.33 460.30 C 825.46 459.11, 826.93 458.78, 829.05 458.00 C 831.16 457.21, 831.81 456.88, 832.90 456.38 C 833.99 455.89, 834.21 455.80, 834.51 455.53 C 834.80 455.26, 834.77 455.12, 834.37 455.05 C 833.98 454.98, 833.73 454.96, 832.53 455.16 C 831.33 455.36, 830.58 455.40, 828.39 456.06 C 826.21 456.72, 824.75 457.19, 821.61 458.47 C 818.46 459.74, 816.41 460.65, 812.68 462.42 C 808.95 464.20, 806.86 465.17, 802.95 467.34 C 799.04 469.51, 796.90 470.71, 793.14 473.27 C 789.39 475.82, 787.47 477.22, 784.19 480.12 C 780.91 483.01, 779.32 484.57, 776.73 487.72 C 774.15 490.87, 773.00 492.57, 771.28 495.87 C 769.56 499.18, 768.92 500.92, 768.14 504.26 C 767.36 507.60, 767.23 509.30, 767.37 512.57 C 767.52 515.84, 767.87 517.54, 768.87 520.63 C 769.86 523.72, 770.65 525.28, 772.34 528.02 C 774.02 530.77, 775.12 532.13, 777.28 534.35 C 779.45 536.58, 780.73 537.62, 783.16 539.14 C 785.59 540.65, 786.99 541.26, 789.44 541.91 C 791.89 542.56, 793.17 542.65, 795.41 542.38 C 797.66 542.10, 798.75 541.74, 800.66 540.55 C 802.57 539.35, 803.46 538.57, 804.98 536.40 C 806.49 534.22, 807.12 532.86, 808.22 529.67 C 809.33 526.48, 809.71 524.62, 810.50 520.46 C 811.29 516.30, 811.62 513.92, 812.18 508.89 C 812.74 503.85, 812.93 501.00, 813.31 495.29 C 813.70 489.59, 813.81 486.44, 814.09 480.36 C 814.37 474.28, 814.49 471.01, 814.72 464.90 C 814.95 458.79, 815.03 455.50, 815.24 449.82 C 815.45 444.15, 815.56 441.18, 815.78 436.52 C 816.00 431.87, 816.33 429.74, 816.36 426.56 C 816.39 423.39, 816.29 422.09, 815.91 420.64 C 815.53 419.18, 815.14 418.91, 814.46 419.29 C 813.77 419.67, 813.34 420.50, 812.48 422.54 C 811.61 424.58, 811.25 426.27, 810.12 429.49 C 808.98 432.70, 808.32 434.91, 806.82 438.62 C 805.31 442.33, 804.39 444.58, 802.60 448.03 C 800.82 451.49, 799.75 453.28, 797.88 455.92 C 796.01 458.56, 794.95 459.60, 793.24 461.23 C 791.53 462.86, 790.71 463.47, 789.32 464.07 C 787.93 464.68, 787.27 464.82, 786.29 464.25 C 785.31 463.68, 784.88 463.13, 784.43 461.21 C 783.98 459.29, 783.80 457.87, 784.04 454.64 C 784.27 451.41, 784.55 449.12, 785.58 445.05 C 786.62 440.98, 787.48 438.38, 789.21 434.29 C 790.93 430.21, 792.13 427.92, 794.21 424.62 C 796.29 421.33, 797.63 419.91, 799.62 417.83 C 801.60 415.75, 802.57 415.12, 804.13 414.23 C 805.68 413.34, 806.34 413.32, 807.37 413.37 C 808.40 413.42, 808.68 413.77, 809.26 414.47 C 809.85 415.16, 809.93 415.88, 810.28 416.86 C 810.63 417.84, 810.72 418.50, 811.01 419.37 C 811.31 420.24, 811.41 420.86, 811.77 421.22 C 812.13 421.58, 812.50 421.60, 812.82 421.16" style="stroke: black; fill: black;"/><path d="M 926.74,410.63 C 926.61 410.12, 926.23 409.57, 925.44 408.94 C 924.65 408.31, 924.09 407.86, 922.79 407.47 C 921.49 407.08, 920.61 406.75, 918.94 406.97 C 917.26 407.19, 916.31 407.30, 914.43 408.55 C 912.54 409.81, 911.48 410.65, 909.53 413.25 C 907.58 415.86, 906.56 417.63, 904.68 421.57 C 902.80 425.50, 901.75 428.13, 900.14 432.93 C 898.53 437.72, 897.70 440.71, 896.63 445.56 C 895.56 450.40, 895.17 453.09, 894.79 457.15 C 894.40 461.21, 894.32 463.07, 894.72 465.86 C 895.11 468.64, 895.66 469.65, 896.76 471.06 C 897.86 472.48, 898.67 472.84, 900.20 472.94 C 901.73 473.04, 902.69 472.78, 904.43 471.56 C 906.16 470.35, 907.12 469.42, 908.87 466.85 C 910.62 464.29, 911.43 462.52, 913.17 458.74 C 914.90 454.97, 915.84 452.51, 917.54 447.98 C 919.25 443.44, 920.15 440.61, 921.69 436.06 C 923.24 431.51, 924.09 428.92, 925.28 425.21 C 926.47 421.49, 927.10 419.59, 927.65 417.48 C 928.20 415.38, 928.11 414.65, 928.02 414.70 C 927.94 414.76, 927.51 415.50, 927.23 417.75 C 926.95 420.01, 926.86 422.00, 926.63 425.99 C 926.39 429.98, 926.27 432.85, 926.06 437.71 C 925.85 442.57, 925.68 445.54, 925.56 450.28 C 925.44 455.02, 925.38 457.51, 925.45 461.40 C 925.52 465.29, 925.56 467.09, 925.92 469.75 C 926.28 472.41, 926.72 473.28, 927.24 474.70 C 927.75 476.11, 928.07 476.32, 928.49 476.81 C 928.91 477.30, 929.12 477.14, 929.33 477.16 C 929.54 477.18, 929.55 477.06, 929.53 476.90 C 929.52 476.75, 929.40 476.91, 929.25 476.38 C 929.11 475.86, 929.05 475.64, 928.79 474.27 C 928.53 472.89, 928.28 472.07, 927.96 469.49 C 927.64 466.91, 927.35 465.18, 927.20 461.35 C 927.05 457.52, 927.07 455.03, 927.20 450.33 C 927.34 445.62, 927.55 442.65, 927.88 437.81 C 928.20 432.97, 928.55 430.13, 928.83 426.13 C 929.10 422.13, 929.41 420.15, 929.27 417.82 C 929.13 415.48, 928.78 414.63, 928.13 414.45 C 927.48 414.26, 926.92 414.86, 926.00 416.90 C 925.08 418.94, 924.70 420.93, 923.53 424.65 C 922.36 428.38, 921.67 431.00, 920.16 435.54 C 918.65 440.09, 917.73 442.90, 915.97 447.37 C 914.22 451.84, 913.22 454.27, 911.39 457.88 C 909.55 461.49, 908.45 463.03, 906.79 465.42 C 905.13 467.82, 904.39 468.66, 903.08 469.87 C 901.76 471.09, 901.24 471.42, 900.22 471.49 C 899.20 471.56, 898.68 471.40, 897.98 470.22 C 897.27 469.04, 896.98 468.19, 896.68 465.60 C 896.38 463.02, 896.17 461.23, 896.47 457.29 C 896.76 453.35, 897.11 450.66, 898.15 445.89 C 899.19 441.12, 900.03 438.15, 901.67 433.45 C 903.31 428.76, 904.42 426.16, 906.37 422.41 C 908.32 418.66, 909.55 417.09, 911.43 414.72 C 913.31 412.35, 914.23 411.63, 915.78 410.55 C 917.34 409.48, 917.96 409.47, 919.21 409.36 C 920.46 409.24, 921.02 409.65, 922.04 409.96 C 923.06 410.26, 923.48 410.59, 924.30 410.89 C 925.11 411.20, 925.62 411.54, 926.11 411.49 C 926.59 411.44, 926.87 411.14, 926.74 410.63" style="stroke: black; fill: black;"/><path d="M 955.68,377.82 C 955.37 378.23, 955.20 378.39, 954.91 379.93 C 954.63 381.48, 954.44 382.43, 954.26 385.52 C 954.08 388.62, 954.20 390.72, 954.01 395.41 C 953.83 400.10, 953.68 403.22, 953.33 408.97 C 952.99 414.72, 952.70 418.16, 952.30 424.16 C 951.89 430.16, 951.65 433.43, 951.31 438.99 C 950.97 444.55, 950.78 447.34, 950.59 451.94 C 950.40 456.55, 950.30 458.64, 950.36 462.02 C 950.41 465.40, 950.58 466.87, 950.87 468.83 C 951.16 470.79, 951.44 471.11, 951.81 471.83 C 952.17 472.56, 952.46 472.48, 952.70 472.46 C 952.95 472.45, 953.06 471.90, 953.02 471.75 C 952.98 471.60, 952.56 471.61, 952.50 471.71 C 952.44 471.82, 952.65 472.31, 952.72 472.27 C 952.79 472.24, 952.86 472.28, 952.85 471.56 C 952.83 470.83, 952.77 470.55, 952.63 468.64 C 952.49 466.72, 952.27 465.30, 952.14 461.97 C 952.02 458.64, 951.93 456.57, 952.02 451.98 C 952.10 447.40, 952.28 444.61, 952.59 439.06 C 952.90 433.52, 953.14 430.25, 953.58 424.25 C 954.01 418.25, 954.32 414.82, 954.77 409.07 C 955.22 403.33, 955.43 400.21, 955.84 395.53 C 956.25 390.85, 956.61 388.77, 956.81 385.68 C 957.00 382.59, 956.88 381.63, 956.82 380.07 C 956.75 378.51, 956.70 378.35, 956.47 377.90 C 956.25 377.45, 956.00 377.41, 955.68 377.82" style="stroke: black; fill: black;"/><path d="M 938.66,430.16 C 939.04 430.38, 939.29 430.46, 940.41 430.44 C 941.53 430.41, 942.28 430.36, 944.24 430.03 C 946.20 429.71, 947.55 429.46, 950.21 428.79 C 952.86 428.13, 954.51 427.55, 957.53 426.72 C 960.55 425.88, 962.27 425.39, 965.30 424.62 C 968.32 423.85, 970.07 423.47, 972.67 422.87 C 975.28 422.27, 976.54 422.03, 978.33 421.60 C 980.11 421.18, 980.68 420.99, 981.62 420.74 C 982.56 420.48, 982.73 420.49, 983.01 420.31 C 983.29 420.13, 983.30 419.99, 983.00 419.82 C 982.70 419.65, 982.50 419.51, 981.49 419.45 C 980.49 419.38, 979.84 419.30, 977.97 419.49 C 976.10 419.69, 974.79 419.86, 972.13 420.41 C 969.48 420.97, 967.75 421.51, 964.70 422.27 C 961.66 423.03, 959.94 423.52, 956.89 424.23 C 953.85 424.93, 952.16 425.22, 949.50 425.82 C 946.84 426.41, 945.52 426.68, 943.61 427.21 C 941.71 427.74, 941.02 428.04, 940.00 428.46 C 938.98 428.89, 938.78 428.98, 938.51 429.32 C 938.24 429.66, 938.27 429.93, 938.66 430.16" style="stroke: black; fill: black;"/><path d="M 1067.36,419.95 C 1067.35 419.36, 1067.11 418.67, 1066.45 417.64 C 1065.80 416.61, 1065.34 415.82, 1064.10 414.79 C 1062.85 413.77, 1061.99 413.04, 1060.24 412.52 C 1058.49 411.99, 1057.49 411.79, 1055.35 412.18 C 1053.21 412.56, 1051.93 412.83, 1049.54 414.44 C 1047.15 416.05, 1045.83 417.30, 1043.39 420.22 C 1040.96 423.14, 1039.58 425.14, 1037.36 429.04 C 1035.15 432.95, 1033.97 435.47, 1032.31 439.74 C 1030.66 444.02, 1029.91 446.51, 1029.08 450.41 C 1028.25 454.31, 1027.97 456.30, 1028.15 459.24 C 1028.33 462.19, 1028.86 463.42, 1029.98 465.14 C 1031.10 466.87, 1032.00 467.39, 1033.75 467.87 C 1035.50 468.35, 1036.63 468.27, 1038.74 467.55 C 1040.85 466.84, 1042.10 466.18, 1044.29 464.29 C 1046.47 462.40, 1047.57 461.00, 1049.66 458.10 C 1051.75 455.20, 1052.84 453.36, 1054.76 449.80 C 1056.69 446.23, 1057.66 444.03, 1059.29 440.29 C 1060.92 436.56, 1061.71 434.40, 1062.93 431.12 C 1064.16 427.85, 1064.76 426.23, 1065.40 423.94 C 1066.05 421.65, 1066.12 420.68, 1066.16 419.70 C 1066.20 418.71, 1065.92 418.53, 1065.59 419.01 C 1065.26 419.49, 1064.84 420.12, 1064.51 422.09 C 1064.17 424.05, 1064.09 425.49, 1063.93 428.84 C 1063.77 432.19, 1063.85 434.36, 1063.71 438.84 C 1063.57 443.31, 1063.45 446.01, 1063.23 451.21 C 1063.01 456.40, 1062.88 459.32, 1062.62 464.81 C 1062.37 470.29, 1062.26 473.23, 1061.94 478.62 C 1061.63 484.01, 1061.49 486.81, 1061.05 491.78 C 1060.60 496.75, 1060.37 499.21, 1059.72 503.47 C 1059.08 507.73, 1058.70 509.73, 1057.84 513.08 C 1056.98 516.42, 1056.44 517.85, 1055.41 520.21 C 1054.38 522.57, 1053.89 523.47, 1052.70 524.86 C 1051.50 526.26, 1050.86 526.68, 1049.46 527.19 C 1048.06 527.71, 1047.30 527.74, 1045.68 527.44 C 1044.06 527.14, 1043.15 526.77, 1041.37 525.70 C 1039.60 524.63, 1038.59 523.88, 1036.80 522.08 C 1035.02 520.28, 1034.00 519.15, 1032.45 516.70 C 1030.89 514.24, 1030.07 512.77, 1029.02 509.80 C 1027.96 506.84, 1027.53 505.17, 1027.17 501.85 C 1026.82 498.54, 1026.80 496.73, 1027.24 493.23 C 1027.69 489.73, 1028.12 487.90, 1029.40 484.36 C 1030.68 480.81, 1031.58 478.98, 1033.64 475.52 C 1035.70 472.07, 1037.02 470.32, 1039.71 467.09 C 1042.40 463.87, 1044.00 462.28, 1047.08 459.41 C 1050.17 456.54, 1051.88 455.19, 1055.14 452.75 C 1058.39 450.31, 1060.16 449.21, 1063.36 447.20 C 1066.55 445.19, 1068.16 444.30, 1071.10 442.69 C 1074.03 441.08, 1075.50 440.45, 1078.05 439.14 C 1080.60 437.83, 1081.76 437.24, 1083.84 436.13 C 1085.93 435.02, 1086.84 434.58, 1088.46 433.59 C 1090.08 432.60, 1090.74 432.14, 1091.94 431.18 C 1093.15 430.21, 1093.62 429.77, 1094.48 428.75 C 1095.34 427.73, 1095.67 427.17, 1096.25 426.07 C 1096.83 424.96, 1097.00 424.33, 1097.38 423.22 C 1097.77 422.10, 1098.05 421.48, 1098.17 420.48 C 1098.29 419.47, 1098.22 418.74, 1097.98 418.20 C 1097.73 417.66, 1097.34 417.32, 1096.96 417.78 C 1096.58 418.24, 1096.38 418.71, 1096.09 420.50 C 1095.80 422.28, 1095.72 423.66, 1095.52 426.70 C 1095.32 429.75, 1095.35 431.91, 1095.10 435.73 C 1094.86 439.55, 1094.65 441.94, 1094.31 445.81 C 1093.97 449.68, 1093.71 451.78, 1093.39 455.09 C 1093.07 458.41, 1092.86 459.96, 1092.73 462.37 C 1092.59 464.78, 1092.58 465.78, 1092.72 467.14 C 1092.86 468.49, 1093.03 468.94, 1093.42 469.15 C 1093.80 469.36, 1094.17 469.21, 1094.64 468.18 C 1095.11 467.15, 1095.37 466.32, 1095.76 464.01 C 1096.16 461.70, 1096.09 460.02, 1096.60 456.62 C 1097.10 453.21, 1097.34 450.94, 1098.28 446.97 C 1099.21 443.00, 1099.89 440.59, 1101.27 436.76 C 1102.65 432.92, 1103.53 430.89, 1105.17 427.79 C 1106.80 424.69, 1107.84 423.34, 1109.43 421.27 C 1111.03 419.20, 1111.81 418.44, 1113.14 417.44 C 1114.47 416.44, 1115.08 416.12, 1116.07 416.28 C 1117.06 416.43, 1117.40 416.78, 1118.10 418.20 C 1118.80 419.62, 1119.05 420.79, 1119.57 423.38 C 1120.10 425.97, 1120.47 427.78, 1120.74 431.16 C 1121.01 434.53, 1121.01 436.75, 1120.93 440.27 C 1120.84 443.80, 1120.56 445.79, 1120.30 448.79 C 1120.04 451.78, 1119.76 453.20, 1119.63 455.25 C 1119.49 457.29, 1119.43 458.12, 1119.63 459.00 C 1119.83 459.88, 1120.10 460.11, 1120.61 459.67 C 1121.13 459.22, 1121.54 458.67, 1122.21 456.80 C 1122.89 454.92, 1123.12 453.46, 1124.01 450.30 C 1124.89 447.15, 1125.29 444.88, 1126.62 441.02 C 1127.95 437.16, 1128.89 434.69, 1130.66 430.98 C 1132.43 427.28, 1133.61 425.28, 1135.48 422.50 C 1137.35 419.72, 1138.44 418.58, 1140.01 417.09 C 1141.59 415.60, 1142.26 415.19, 1143.36 415.03 C 1144.45 414.88, 1144.81 415.13, 1145.50 416.31 C 1146.19 417.49, 1146.33 418.49, 1146.80 420.93 C 1147.27 423.36, 1147.57 425.10, 1147.86 428.49 C 1148.15 431.88, 1148.23 434.10, 1148.27 437.86 C 1148.32 441.63, 1148.16 443.83, 1148.08 447.30 C 1148.00 450.76, 1147.76 452.50, 1147.87 455.19 C 1147.98 457.87, 1148.13 459.00, 1148.64 460.72 C 1149.14 462.44, 1149.47 463.06, 1150.40 463.80 C 1151.33 464.55, 1152.11 464.55, 1153.28 464.43 C 1154.45 464.31, 1155.28 463.87, 1156.25 463.20 C 1157.23 462.54, 1157.64 461.96, 1158.14 461.13 C 1158.64 460.30, 1158.80 459.58, 1158.76 459.05 C 1158.72 458.52, 1158.42 458.38, 1157.95 458.50 C 1157.47 458.63, 1157.04 459.13, 1156.39 459.67 C 1155.75 460.20, 1155.43 460.57, 1154.73 461.17 C 1154.02 461.77, 1153.55 462.34, 1152.86 462.66 C 1152.17 462.99, 1151.75 463.26, 1151.26 462.79 C 1150.77 462.32, 1150.63 461.86, 1150.40 460.32 C 1150.18 458.79, 1150.19 457.72, 1150.15 455.12 C 1150.12 452.53, 1150.16 450.79, 1150.21 447.34 C 1150.26 443.89, 1150.40 441.66, 1150.41 437.85 C 1150.43 434.05, 1150.49 431.81, 1150.28 428.31 C 1150.06 424.81, 1150.02 422.95, 1149.34 420.34 C 1148.66 417.74, 1148.09 416.61, 1146.87 415.27 C 1145.65 413.93, 1144.87 413.58, 1143.24 413.65 C 1141.61 413.72, 1140.61 414.07, 1138.72 415.62 C 1136.83 417.16, 1135.76 418.47, 1133.81 421.37 C 1131.85 424.28, 1130.77 426.37, 1128.94 430.16 C 1127.11 433.94, 1126.16 436.42, 1124.64 440.29 C 1123.13 444.17, 1122.35 446.35, 1121.37 449.53 C 1120.40 452.70, 1120.06 454.19, 1119.76 456.17 C 1119.45 458.15, 1119.65 458.84, 1119.85 459.43 C 1120.05 460.02, 1120.37 459.91, 1120.76 459.13 C 1121.14 458.35, 1121.42 457.55, 1121.79 455.52 C 1122.17 453.49, 1122.37 452.03, 1122.65 448.99 C 1122.92 445.96, 1123.06 443.93, 1123.16 440.33 C 1123.26 436.73, 1123.33 434.51, 1123.16 431.00 C 1122.98 427.49, 1122.94 425.56, 1122.27 422.78 C 1121.61 420.00, 1121.01 418.71, 1119.82 417.12 C 1118.62 415.53, 1117.83 415.07, 1116.29 414.83 C 1114.76 414.59, 1113.85 414.91, 1112.14 415.93 C 1110.42 416.95, 1109.46 417.74, 1107.72 419.94 C 1105.99 422.13, 1105.09 423.67, 1103.45 426.91 C 1101.81 430.15, 1100.95 432.21, 1099.53 436.13 C 1098.10 440.04, 1097.41 442.47, 1096.32 446.48 C 1095.24 450.49, 1094.77 452.75, 1094.09 456.18 C 1093.40 459.61, 1093.10 461.28, 1092.88 463.63 C 1092.67 465.99, 1092.83 466.85, 1092.99 467.94 C 1093.16 469.03, 1093.42 469.21, 1093.70 469.06 C 1093.97 468.92, 1094.14 468.51, 1094.38 467.20 C 1094.62 465.90, 1094.69 464.92, 1094.91 462.53 C 1095.13 460.15, 1095.20 458.59, 1095.49 455.28 C 1095.77 451.97, 1095.95 449.87, 1096.33 446.00 C 1096.70 442.12, 1096.93 439.74, 1097.36 435.93 C 1097.80 432.12, 1098.21 429.99, 1098.49 426.93 C 1098.77 423.88, 1098.85 422.48, 1098.76 420.64 C 1098.67 418.80, 1098.47 418.29, 1098.04 417.73 C 1097.62 417.17, 1097.14 417.40, 1096.63 417.83 C 1096.13 418.26, 1095.83 418.95, 1095.52 419.88 C 1095.20 420.82, 1095.30 421.49, 1095.05 422.53 C 1094.80 423.57, 1094.69 424.12, 1094.26 425.11 C 1093.83 426.09, 1093.62 426.55, 1092.90 427.45 C 1092.18 428.34, 1091.78 428.72, 1090.68 429.59 C 1089.57 430.45, 1088.95 430.87, 1087.38 431.79 C 1085.81 432.71, 1084.90 433.12, 1082.83 434.20 C 1080.75 435.28, 1079.56 435.82, 1077.02 437.18 C 1074.48 438.54, 1073.06 439.30, 1070.14 441.00 C 1067.22 442.71, 1065.60 443.63, 1062.40 445.71 C 1059.20 447.79, 1057.41 448.91, 1054.13 451.41 C 1050.84 453.91, 1049.10 455.28, 1045.96 458.20 C 1042.82 461.13, 1041.19 462.74, 1038.43 466.02 C 1035.67 469.31, 1034.31 471.09, 1032.17 474.63 C 1030.02 478.18, 1029.07 480.06, 1027.70 483.73 C 1026.34 487.40, 1025.86 489.31, 1025.35 492.98 C 1024.83 496.64, 1024.83 498.55, 1025.14 502.05 C 1025.46 505.56, 1025.89 507.33, 1026.93 510.52 C 1027.97 513.70, 1028.76 515.29, 1030.36 517.98 C 1031.96 520.66, 1032.98 521.96, 1034.93 523.93 C 1036.89 525.91, 1038.05 526.73, 1040.14 527.86 C 1042.23 528.99, 1043.37 529.37, 1045.37 529.59 C 1047.37 529.80, 1048.39 529.65, 1050.14 528.96 C 1051.89 528.26, 1052.68 527.70, 1054.11 526.11 C 1055.54 524.52, 1056.20 523.55, 1057.29 521.03 C 1058.38 518.50, 1058.77 516.96, 1059.55 513.49 C 1060.34 510.02, 1060.65 508.00, 1061.22 503.68 C 1061.79 499.37, 1062.00 496.90, 1062.41 491.90 C 1062.82 486.90, 1062.94 484.10, 1063.26 478.70 C 1063.57 473.29, 1063.68 470.36, 1063.98 464.88 C 1064.27 459.39, 1064.42 456.47, 1064.74 451.29 C 1065.05 446.10, 1065.20 443.39, 1065.56 438.94 C 1065.92 434.48, 1066.24 432.35, 1066.52 429.01 C 1066.79 425.68, 1066.98 424.27, 1066.94 422.27 C 1066.90 420.26, 1066.69 419.57, 1066.32 418.98 C 1065.94 418.39, 1065.66 418.46, 1065.06 419.31 C 1064.46 420.17, 1064.11 421.04, 1063.30 423.26 C 1062.49 425.49, 1062.16 427.17, 1061.01 430.43 C 1059.86 433.68, 1059.16 435.86, 1057.57 439.55 C 1055.98 443.23, 1055.00 445.41, 1053.06 448.86 C 1051.12 452.30, 1049.99 454.08, 1047.89 456.77 C 1045.79 459.46, 1044.55 460.56, 1042.56 462.30 C 1040.57 464.05, 1039.61 464.71, 1037.92 465.50 C 1036.24 466.29, 1035.44 466.50, 1034.13 466.25 C 1032.83 466.01, 1032.18 465.71, 1031.40 464.29 C 1030.62 462.86, 1030.33 461.84, 1030.22 459.14 C 1030.11 456.43, 1030.10 454.52, 1030.84 450.77 C 1031.57 447.01, 1032.29 444.52, 1033.90 440.36 C 1035.52 436.20, 1036.71 433.70, 1038.93 429.95 C 1041.15 426.20, 1042.58 424.28, 1044.99 421.60 C 1047.39 418.92, 1048.80 417.99, 1050.96 416.56 C 1053.12 415.13, 1054.08 414.79, 1055.78 414.46 C 1057.48 414.12, 1058.15 414.38, 1059.46 414.87 C 1060.78 415.36, 1061.31 416.06, 1062.36 416.91 C 1063.40 417.77, 1063.85 418.40, 1064.68 419.13 C 1065.51 419.86, 1065.98 420.40, 1066.51 420.57 C 1067.05 420.73, 1067.37 420.54, 1067.36 419.95" style="stroke: black; fill: black;"/><path d="M 1193.54,417.87 C 1193.86 417.54, 1194.05 417.06, 1194.09 416.26 C 1194.12 415.45, 1194.13 414.81, 1193.72 413.85 C 1193.30 412.89, 1192.94 412.18, 1192.02 411.47 C 1191.09 410.76, 1190.46 410.41, 1189.09 410.32 C 1187.71 410.22, 1186.89 410.23, 1185.14 411.01 C 1183.38 411.78, 1182.27 412.27, 1180.30 414.19 C 1178.33 416.10, 1177.30 417.48, 1175.29 420.60 C 1173.28 423.72, 1172.12 425.79, 1170.26 429.79 C 1168.40 433.79, 1167.41 436.32, 1165.98 440.59 C 1164.56 444.87, 1163.92 447.31, 1163.14 451.15 C 1162.36 454.99, 1162.06 456.91, 1162.10 459.79 C 1162.13 462.67, 1162.51 463.84, 1163.32 465.55 C 1164.12 467.27, 1164.78 467.81, 1166.14 468.36 C 1167.50 468.92, 1168.41 468.93, 1170.11 468.34 C 1171.81 467.75, 1172.84 467.19, 1174.62 465.41 C 1176.41 463.62, 1177.28 462.34, 1179.06 459.41 C 1180.83 456.49, 1181.72 454.58, 1183.50 450.79 C 1185.27 447.00, 1186.23 444.62, 1187.94 440.46 C 1189.64 436.30, 1190.53 433.80, 1192.03 429.99 C 1193.53 426.19, 1194.44 424.21, 1195.43 421.42 C 1196.42 418.63, 1196.72 417.28, 1196.99 416.06 C 1197.26 414.83, 1197.07 414.59, 1196.78 415.31 C 1196.50 416.02, 1195.98 417.05, 1195.56 419.64 C 1195.14 422.23, 1195.04 424.33, 1194.68 428.25 C 1194.32 432.17, 1194.09 434.85, 1193.76 439.25 C 1193.43 443.66, 1193.22 446.26, 1193.04 450.26 C 1192.85 454.25, 1192.66 456.23, 1192.83 459.24 C 1193.00 462.25, 1193.22 463.47, 1193.88 465.30 C 1194.54 467.13, 1195.04 467.74, 1196.12 468.37 C 1197.19 469.00, 1197.89 469.06, 1199.25 468.46 C 1200.60 467.85, 1201.43 467.27, 1202.89 465.36 C 1204.36 463.45, 1205.01 462.06, 1206.55 458.92 C 1208.09 455.78, 1208.89 453.66, 1210.58 449.65 C 1212.26 445.64, 1213.22 443.06, 1214.97 438.87 C 1216.73 434.67, 1217.71 432.27, 1219.35 428.68 C 1220.98 425.10, 1221.99 423.40, 1223.15 420.94 C 1224.31 418.49, 1224.69 417.35, 1225.16 416.41 C 1225.63 415.47, 1225.56 415.38, 1225.51 416.23 C 1225.47 417.08, 1225.11 418.11, 1224.92 420.67 C 1224.73 423.24, 1224.75 425.21, 1224.55 429.06 C 1224.35 432.91, 1224.18 435.52, 1223.92 439.93 C 1223.66 444.33, 1223.48 446.98, 1223.24 451.10 C 1223.01 455.22, 1222.81 457.31, 1222.74 460.53 C 1222.67 463.74, 1222.67 465.13, 1222.88 467.17 C 1223.09 469.22, 1223.45 469.79, 1223.79 470.75 C 1224.13 471.71, 1224.34 471.75, 1224.58 471.96 C 1224.82 472.18, 1224.92 472.11, 1224.98 471.82 C 1225.04 471.54, 1224.94 471.48, 1224.90 470.53 C 1224.87 469.58, 1224.82 469.06, 1224.80 467.06 C 1224.78 465.07, 1224.73 463.74, 1224.79 460.57 C 1224.84 457.39, 1224.86 455.30, 1225.07 451.20 C 1225.28 447.09, 1225.46 444.46, 1225.83 440.06 C 1226.19 435.67, 1226.54 433.09, 1226.89 429.22 C 1227.23 425.36, 1227.62 423.40, 1227.54 420.73 C 1227.47 418.07, 1227.17 416.92, 1226.52 415.90 C 1225.87 414.89, 1225.36 414.84, 1224.29 415.65 C 1223.22 416.46, 1222.50 417.48, 1221.17 419.94 C 1219.85 422.40, 1219.23 424.29, 1217.67 427.94 C 1216.11 431.59, 1215.13 434.00, 1213.36 438.19 C 1211.59 442.38, 1210.60 444.95, 1208.82 448.88 C 1207.03 452.81, 1206.02 454.83, 1204.42 457.83 C 1202.82 460.83, 1202.01 462.03, 1200.81 463.87 C 1199.60 465.72, 1199.20 466.34, 1198.39 467.04 C 1197.59 467.74, 1197.35 467.81, 1196.78 467.36 C 1196.21 466.92, 1195.92 466.45, 1195.56 464.80 C 1195.19 463.16, 1195.08 462.02, 1194.95 459.13 C 1194.82 456.24, 1194.76 454.28, 1194.91 450.33 C 1195.06 446.39, 1195.26 443.79, 1195.69 439.42 C 1196.11 435.05, 1196.53 432.41, 1197.03 428.51 C 1197.52 424.60, 1198.03 422.56, 1198.15 419.91 C 1198.27 417.25, 1198.08 416.10, 1197.62 415.22 C 1197.17 414.34, 1196.73 414.43, 1195.87 415.51 C 1195.02 416.59, 1194.45 417.87, 1193.34 420.63 C 1192.23 423.40, 1191.73 425.51, 1190.33 429.35 C 1188.92 433.18, 1188.02 435.67, 1186.31 439.79 C 1184.60 443.91, 1183.61 446.27, 1181.76 449.94 C 1179.91 453.62, 1178.87 455.42, 1177.07 458.16 C 1175.27 460.89, 1174.32 461.95, 1172.77 463.62 C 1171.22 465.29, 1170.54 465.84, 1169.32 466.52 C 1168.09 467.20, 1167.55 467.35, 1166.66 467.03 C 1165.76 466.71, 1165.33 466.38, 1164.84 464.93 C 1164.36 463.48, 1164.21 462.47, 1164.23 459.78 C 1164.24 457.10, 1164.25 455.23, 1164.93 451.50 C 1165.61 447.77, 1166.23 445.33, 1167.63 441.14 C 1169.03 436.96, 1170.04 434.45, 1171.94 430.59 C 1173.83 426.73, 1175.08 424.72, 1177.13 421.83 C 1179.18 418.95, 1180.37 417.87, 1182.18 416.14 C 1184.00 414.42, 1184.84 413.96, 1186.21 413.22 C 1187.57 412.49, 1188.14 412.48, 1189.00 412.48 C 1189.85 412.48, 1190.05 412.74, 1190.48 413.23 C 1190.92 413.71, 1190.92 414.21, 1191.17 414.89 C 1191.43 415.57, 1191.50 416.02, 1191.76 416.63 C 1192.02 417.24, 1192.13 417.69, 1192.49 417.94 C 1192.84 418.19, 1193.22 418.21, 1193.54 417.87" style="stroke: black; fill: black;"/><path d="M 1229.27,382.19 C 1229.46 381.85, 1229.43 381.50, 1229.25 381.34 C 1229.08 381.18, 1228.72 381.22, 1228.40 381.38 C 1228.07 381.55, 1227.80 381.85, 1227.62 382.17 C 1227.45 382.48, 1227.38 382.79, 1227.52 382.96 C 1227.66 383.13, 1227.96 383.19, 1228.31 383.03 C 1228.67 382.88, 1229.09 382.53, 1229.27 382.19" style="stroke: black; fill: black;"/><path d="M 1258.23,369.36 C 1257.90 369.86, 1257.77 370.28, 1257.46 371.97 C 1257.14 373.66, 1256.94 374.71, 1256.64 377.79 C 1256.34 380.87, 1256.36 382.88, 1255.97 387.36 C 1255.58 391.85, 1255.30 394.67, 1254.71 400.22 C 1254.11 405.77, 1253.70 409.06, 1253.00 415.10 C 1252.30 421.14, 1251.88 424.48, 1251.22 430.41 C 1250.56 436.33, 1250.20 439.43, 1249.71 444.72 C 1249.23 450.02, 1249.03 452.59, 1248.81 456.88 C 1248.58 461.17, 1248.44 463.08, 1248.58 466.18 C 1248.72 469.28, 1249.02 470.48, 1249.51 472.37 C 1250.00 474.26, 1250.47 474.76, 1251.03 475.62 C 1251.60 476.48, 1251.99 476.53, 1252.33 476.68 C 1252.66 476.83, 1252.76 476.68, 1252.71 476.36 C 1252.66 476.05, 1252.37 475.98, 1252.08 475.10 C 1251.78 474.23, 1251.57 473.80, 1251.24 471.99 C 1250.92 470.18, 1250.65 469.09, 1250.46 466.08 C 1250.27 463.07, 1250.18 461.19, 1250.29 456.94 C 1250.40 452.69, 1250.57 450.11, 1251.00 444.83 C 1251.43 439.55, 1251.78 436.46, 1252.43 430.54 C 1253.08 424.62, 1253.51 421.28, 1254.26 415.25 C 1255.00 409.22, 1255.44 405.93, 1256.15 400.39 C 1256.86 394.85, 1257.21 392.04, 1257.81 387.57 C 1258.41 383.10, 1258.82 381.13, 1259.15 378.04 C 1259.48 374.96, 1259.46 373.87, 1259.45 372.15 C 1259.44 370.43, 1259.34 369.98, 1259.09 369.42 C 1258.85 368.86, 1258.55 368.85, 1258.23 369.36" style="stroke: black; fill: black;"/><path d="M 1354.63,417.44 C 1354.56 416.91, 1354.31 416.29, 1353.57 415.52 C 1352.83 414.74, 1352.27 414.14, 1350.93 413.55 C 1349.60 412.96, 1348.69 412.54, 1346.90 412.56 C 1345.11 412.59, 1344.08 412.65, 1341.98 413.68 C 1339.87 414.71, 1338.67 415.39, 1336.37 417.72 C 1334.07 420.04, 1332.81 421.64, 1330.48 425.30 C 1328.15 428.95, 1326.81 431.38, 1324.72 435.98 C 1322.64 440.59, 1321.55 443.50, 1320.06 448.33 C 1318.58 453.16, 1317.97 455.89, 1317.29 460.11 C 1316.61 464.34, 1316.41 466.38, 1316.67 469.46 C 1316.93 472.54, 1317.46 473.77, 1318.61 475.50 C 1319.76 477.23, 1320.66 477.72, 1322.42 478.11 C 1324.19 478.50, 1325.33 478.42, 1327.42 477.44 C 1329.51 476.46, 1330.68 475.64, 1332.88 473.22 C 1335.07 470.80, 1336.15 469.19, 1338.40 465.34 C 1340.64 461.50, 1341.82 459.11, 1344.09 454.00 C 1346.35 448.90, 1347.54 445.79, 1349.74 439.82 C 1351.94 433.84, 1353.09 430.34, 1355.10 424.10 C 1357.11 417.87, 1358.11 414.44, 1359.79 408.63 C 1361.46 402.81, 1362.23 399.86, 1363.48 395.04 C 1364.72 390.21, 1365.31 388.00, 1366.02 384.50 C 1366.72 381.01, 1366.96 379.59, 1367.00 377.57 C 1367.04 375.56, 1366.76 374.91, 1366.21 374.43 C 1365.66 373.96, 1365.07 373.97, 1364.25 375.21 C 1363.43 376.45, 1362.88 377.49, 1362.12 380.62 C 1361.36 383.75, 1361.17 386.02, 1360.45 390.86 C 1359.73 395.71, 1359.27 398.87, 1358.52 404.85 C 1357.77 410.83, 1357.32 414.47, 1356.67 420.77 C 1356.03 427.08, 1355.71 430.56, 1355.29 436.37 C 1354.88 442.18, 1354.71 445.02, 1354.59 449.82 C 1354.48 454.62, 1354.46 456.79, 1354.71 460.37 C 1354.96 463.94, 1355.17 465.41, 1355.85 467.71 C 1356.53 470.02, 1357.05 470.81, 1358.12 471.89 C 1359.20 472.98, 1360.03 473.06, 1361.22 473.14 C 1362.41 473.22, 1363.21 472.83, 1364.08 472.28 C 1364.94 471.72, 1365.41 470.91, 1365.56 470.37 C 1365.71 469.83, 1365.33 469.53, 1364.83 469.58 C 1364.34 469.64, 1363.81 470.24, 1363.10 470.64 C 1362.38 471.04, 1362.02 471.52, 1361.24 471.57 C 1360.46 471.62, 1359.94 471.76, 1359.21 470.89 C 1358.48 470.02, 1358.18 469.35, 1357.61 467.22 C 1357.04 465.08, 1356.70 463.70, 1356.37 460.23 C 1356.04 456.75, 1355.92 454.60, 1355.95 449.84 C 1355.98 445.09, 1356.12 442.24, 1356.51 436.45 C 1356.90 430.66, 1357.22 427.19, 1357.89 420.90 C 1358.57 414.62, 1359.02 410.98, 1359.89 405.04 C 1360.75 399.09, 1361.29 395.93, 1362.22 391.16 C 1363.15 386.39, 1363.84 384.26, 1364.53 381.19 C 1365.22 378.12, 1365.42 377.10, 1365.67 375.81 C 1365.92 374.51, 1365.84 374.37, 1365.77 374.70 C 1365.71 375.03, 1365.63 375.54, 1365.35 377.44 C 1365.07 379.34, 1365.00 380.73, 1364.37 384.19 C 1363.74 387.64, 1363.34 389.90, 1362.20 394.72 C 1361.05 399.54, 1360.30 402.50, 1358.66 408.30 C 1357.02 414.11, 1356.02 417.54, 1354.01 423.75 C 1352.00 429.97, 1350.84 433.46, 1348.60 439.39 C 1346.35 445.32, 1345.14 448.41, 1342.80 453.42 C 1340.46 458.42, 1339.21 460.78, 1336.88 464.42 C 1334.56 468.07, 1333.27 469.43, 1331.18 471.65 C 1329.09 473.87, 1328.13 474.55, 1326.43 475.53 C 1324.74 476.52, 1324.00 476.74, 1322.71 476.56 C 1321.42 476.38, 1320.80 476.10, 1319.98 474.65 C 1319.15 473.20, 1318.81 472.17, 1318.59 469.31 C 1318.38 466.45, 1318.32 464.46, 1318.91 460.36 C 1319.49 456.25, 1320.07 453.52, 1321.53 448.78 C 1322.98 444.04, 1324.08 441.14, 1326.18 436.65 C 1328.29 432.16, 1329.67 429.78, 1332.04 426.33 C 1334.41 422.88, 1335.82 421.50, 1338.02 419.41 C 1340.22 417.31, 1341.28 416.75, 1343.05 415.87 C 1344.83 414.99, 1345.54 414.99, 1346.90 415.01 C 1348.27 415.03, 1348.82 415.51, 1349.87 415.97 C 1350.93 416.42, 1351.36 416.85, 1352.16 417.29 C 1352.96 417.74, 1353.39 418.15, 1353.88 418.18 C 1354.38 418.21, 1354.69 417.98, 1354.63 417.44" style="stroke: black; fill: black;"/><path d="M 1396.19,417.75 C 1396.06 417.26, 1395.73 416.67, 1394.89 416.16 C 1394.06 415.64, 1393.42 415.22, 1392.03 415.18 C 1390.64 415.13, 1389.70 415.05, 1387.95 415.93 C 1386.21 416.81, 1385.14 417.42, 1383.30 419.59 C 1381.46 421.76, 1380.53 423.31, 1378.76 426.76 C 1376.99 430.22, 1375.96 432.49, 1374.44 436.84 C 1372.93 441.19, 1372.14 443.98, 1371.20 448.52 C 1370.25 453.07, 1369.88 455.64, 1369.70 459.57 C 1369.52 463.50, 1369.57 465.39, 1370.30 468.16 C 1371.03 470.93, 1371.81 471.99, 1373.34 473.43 C 1374.87 474.87, 1375.95 475.22, 1377.97 475.35 C 1379.98 475.48, 1381.22 475.21, 1383.41 474.08 C 1385.60 472.95, 1386.83 472.05, 1388.91 469.70 C 1391.00 467.35, 1392.04 465.74, 1393.84 462.34 C 1395.64 458.95, 1396.54 456.78, 1397.92 452.71 C 1399.31 448.64, 1399.92 446.15, 1400.76 441.98 C 1401.60 437.81, 1401.85 435.50, 1402.11 431.84 C 1402.37 428.19, 1402.35 426.43, 1402.05 423.71 C 1401.76 420.99, 1401.31 419.94, 1400.64 418.24 C 1399.98 416.55, 1399.43 416.08, 1398.72 415.23 C 1398.02 414.39, 1397.64 414.29, 1397.10 414.01 C 1396.55 413.74, 1396.30 413.83, 1396.00 413.85 C 1395.69 413.88, 1395.65 414.00, 1395.57 414.14 C 1395.49 414.27, 1395.56 414.39, 1395.60 414.51 C 1395.65 414.64, 1395.64 414.61, 1395.79 414.74 C 1395.94 414.87, 1396.02 414.87, 1396.36 415.16 C 1396.69 415.45, 1396.97 415.46, 1397.48 416.19 C 1397.99 416.93, 1398.42 417.31, 1398.91 418.86 C 1399.40 420.41, 1399.66 421.36, 1399.92 423.93 C 1400.18 426.51, 1400.39 428.19, 1400.21 431.73 C 1400.03 435.27, 1399.82 437.56, 1399.02 441.63 C 1398.21 445.71, 1397.59 448.17, 1396.19 452.11 C 1394.80 456.06, 1393.86 458.17, 1392.04 461.36 C 1390.22 464.55, 1389.05 465.93, 1387.10 468.07 C 1385.15 470.21, 1384.11 470.97, 1382.29 472.07 C 1380.48 473.16, 1379.57 473.50, 1378.02 473.53 C 1376.46 473.57, 1375.65 473.41, 1374.49 472.24 C 1373.34 471.07, 1372.85 470.19, 1372.25 467.67 C 1371.65 465.15, 1371.36 463.40, 1371.49 459.64 C 1371.61 455.88, 1371.92 453.31, 1372.85 448.87 C 1373.78 444.43, 1374.58 441.67, 1376.13 437.45 C 1377.69 433.23, 1378.79 431.00, 1380.64 427.78 C 1382.48 424.56, 1383.65 423.28, 1385.34 421.35 C 1387.04 419.41, 1387.79 418.86, 1389.11 418.10 C 1390.44 417.34, 1391.01 417.55, 1391.98 417.56 C 1392.95 417.56, 1393.26 417.90, 1393.98 418.11 C 1394.69 418.33, 1395.12 418.69, 1395.57 418.61 C 1396.01 418.54, 1396.33 418.24, 1396.19 417.75" style="stroke: black; fill: black;"/><path d="M 1430.62,372.77 C 1430.29 373.19, 1430.14 373.41, 1429.81 374.92 C 1429.48 376.44, 1429.27 377.37, 1428.96 380.36 C 1428.66 383.35, 1428.69 385.33, 1428.28 389.88 C 1427.86 394.42, 1427.55 397.38, 1426.87 403.08 C 1426.20 408.78, 1425.71 412.21, 1424.89 418.38 C 1424.07 424.54, 1423.57 427.96, 1422.78 433.91 C 1422.00 439.86, 1421.56 442.93, 1420.97 448.12 C 1420.38 453.31, 1420.16 455.78, 1419.84 459.86 C 1419.53 463.93, 1419.34 465.71, 1419.41 468.49 C 1419.48 471.28, 1419.85 472.25, 1420.18 473.79 C 1420.51 475.34, 1420.77 475.75, 1421.05 476.21 C 1421.33 476.67, 1421.50 476.61, 1421.59 476.10 C 1421.69 475.59, 1421.55 475.16, 1421.51 473.63 C 1421.47 472.11, 1421.42 471.20, 1421.39 468.46 C 1421.37 465.72, 1421.20 463.99, 1421.37 459.95 C 1421.55 455.91, 1421.74 453.44, 1422.26 448.26 C 1422.78 443.08, 1423.21 440.01, 1423.98 434.07 C 1424.76 428.13, 1425.26 424.70, 1426.13 418.54 C 1426.99 412.38, 1427.50 408.96, 1428.30 403.27 C 1429.09 397.58, 1429.47 394.62, 1430.12 390.10 C 1430.77 385.57, 1431.23 383.63, 1431.55 380.63 C 1431.87 377.64, 1431.75 376.67, 1431.73 375.11 C 1431.70 373.56, 1431.65 373.33, 1431.42 372.87 C 1431.20 372.40, 1430.94 372.36, 1430.62 372.77" style="stroke: black; fill: black;"/><path d="M 1411.07,430.99 C 1411.44 431.22, 1411.68 431.30, 1412.80 431.34 C 1413.93 431.37, 1414.72 431.37, 1416.71 431.14 C 1418.71 430.92, 1420.05 430.70, 1422.78 430.20 C 1425.51 429.69, 1427.24 429.25, 1430.35 428.62 C 1433.47 427.99, 1435.23 427.62, 1438.37 427.02 C 1441.50 426.43, 1443.30 426.16, 1446.01 425.66 C 1448.72 425.16, 1450.04 424.93, 1451.92 424.52 C 1453.79 424.11, 1454.41 423.90, 1455.40 423.60 C 1456.38 423.31, 1456.56 423.26, 1456.84 423.05 C 1457.11 422.84, 1457.11 422.71, 1456.79 422.56 C 1456.47 422.41, 1456.27 422.34, 1455.23 422.30 C 1454.19 422.27, 1453.52 422.21, 1451.59 422.38 C 1449.66 422.56, 1448.31 422.71, 1445.57 423.17 C 1442.84 423.63, 1441.06 424.10, 1437.92 424.69 C 1434.79 425.28, 1433.03 425.63, 1429.90 426.13 C 1426.77 426.63, 1425.00 426.75, 1422.26 427.18 C 1419.53 427.61, 1418.19 427.86, 1416.24 428.29 C 1414.28 428.72, 1413.55 428.97, 1412.49 429.34 C 1411.44 429.71, 1411.23 429.82, 1410.95 430.15 C 1410.66 430.48, 1410.70 430.75, 1411.07 430.99" style="stroke: black; fill: black;"/><path d="M 1541.56,417.83 C 1541.29 417.38, 1540.82 416.93, 1539.81 416.53 C 1538.79 416.12, 1538.10 415.81, 1536.48 415.81 C 1534.86 415.81, 1533.78 415.76, 1531.71 416.51 C 1529.65 417.26, 1528.51 417.76, 1526.16 419.58 C 1523.81 421.40, 1522.52 422.64, 1519.96 425.61 C 1517.41 428.58, 1515.90 430.47, 1513.37 434.45 C 1510.84 438.43, 1509.40 440.93, 1507.34 445.49 C 1505.28 450.05, 1504.27 452.78, 1503.06 457.27 C 1501.84 461.76, 1501.40 464.13, 1501.27 467.94 C 1501.14 471.74, 1501.36 473.55, 1502.41 476.31 C 1503.46 479.07, 1504.45 480.16, 1506.54 481.72 C 1508.62 483.28, 1510.02 483.76, 1512.82 484.13 C 1515.61 484.49, 1517.27 484.30, 1520.52 483.55 C 1523.77 482.81, 1525.88 481.87, 1529.09 480.40 C 1532.29 478.94, 1534.11 477.87, 1536.54 476.23 C 1538.97 474.59, 1540.40 473.17, 1541.23 472.21 C 1542.06 471.26, 1541.86 471.01, 1540.69 471.43 C 1539.52 471.86, 1537.90 472.96, 1535.39 474.33 C 1532.87 475.71, 1531.21 476.91, 1528.13 478.30 C 1525.05 479.70, 1523.01 480.59, 1519.99 481.32 C 1516.98 482.05, 1515.53 482.17, 1513.06 481.95 C 1510.59 481.73, 1509.42 481.47, 1507.65 480.20 C 1505.89 478.93, 1505.16 478.06, 1504.23 475.61 C 1503.29 473.17, 1502.91 471.57, 1502.97 467.98 C 1503.04 464.39, 1503.41 462.04, 1504.57 457.67 C 1505.73 453.30, 1506.71 450.59, 1508.75 446.14 C 1510.80 441.68, 1512.25 439.21, 1514.80 435.38 C 1517.34 431.54, 1518.88 429.70, 1521.47 426.96 C 1524.05 424.22, 1525.49 423.27, 1527.71 421.67 C 1529.94 420.06, 1530.85 419.61, 1532.61 418.96 C 1534.38 418.30, 1535.20 418.47, 1536.54 418.40 C 1537.88 418.33, 1538.37 418.53, 1539.29 418.60 C 1540.22 418.68, 1540.72 418.93, 1541.18 418.78 C 1541.63 418.62, 1541.84 418.28, 1541.56 417.83" style="stroke: black; fill: black;"/><path d="M 1572.14,424.19 C 1571.91 423.71, 1571.49 423.18, 1570.54 422.74 C 1569.58 422.30, 1568.87 421.95, 1567.37 421.98 C 1565.86 422.01, 1564.86 421.97, 1563.01 422.88 C 1561.16 423.79, 1560.08 424.43, 1558.13 426.54 C 1556.18 428.64, 1555.14 430.13, 1553.25 433.41 C 1551.36 436.69, 1550.28 438.83, 1548.67 442.92 C 1547.07 447.00, 1546.24 449.57, 1545.24 453.82 C 1544.23 458.08, 1543.84 460.47, 1543.66 464.18 C 1543.48 467.90, 1543.57 469.72, 1544.33 472.42 C 1545.09 475.12, 1545.89 476.19, 1547.48 477.68 C 1549.07 479.17, 1550.15 479.59, 1552.28 479.87 C 1554.41 480.16, 1555.74 479.99, 1558.12 479.10 C 1560.51 478.21, 1561.88 477.46, 1564.22 475.44 C 1566.55 473.42, 1567.76 472.02, 1569.82 469.01 C 1571.88 466.00, 1572.90 464.11, 1574.51 460.41 C 1576.11 456.71, 1576.85 454.45, 1577.84 450.51 C 1578.83 446.56, 1579.14 444.31, 1579.46 440.68 C 1579.77 437.04, 1579.75 435.21, 1579.44 432.33 C 1579.13 429.46, 1578.66 428.22, 1577.90 426.30 C 1577.15 424.37, 1576.51 423.71, 1575.64 422.71 C 1574.77 421.72, 1574.06 421.49, 1573.55 421.31 C 1573.03 421.13, 1572.90 421.37, 1573.08 421.82 C 1573.25 422.28, 1573.85 422.56, 1574.44 423.59 C 1575.03 424.61, 1575.48 425.16, 1576.03 426.96 C 1576.59 428.76, 1576.92 429.86, 1577.22 432.57 C 1577.52 435.29, 1577.75 437.03, 1577.52 440.53 C 1577.28 444.02, 1577.00 446.24, 1576.05 450.06 C 1575.10 453.88, 1574.35 456.09, 1572.76 459.64 C 1571.17 463.18, 1570.12 465.00, 1568.09 467.79 C 1566.06 470.57, 1564.79 471.74, 1562.62 473.56 C 1560.45 475.39, 1559.28 476.03, 1557.25 476.91 C 1555.22 477.79, 1554.19 478.05, 1552.47 477.95 C 1550.76 477.85, 1549.92 477.62, 1548.69 476.41 C 1547.45 475.20, 1546.92 474.31, 1546.29 471.88 C 1545.66 469.46, 1545.39 467.80, 1545.53 464.27 C 1545.66 460.73, 1545.99 458.36, 1546.96 454.23 C 1547.93 450.10, 1548.77 447.55, 1550.40 443.61 C 1552.03 439.67, 1553.16 437.57, 1555.10 434.53 C 1557.04 431.49, 1558.28 430.27, 1560.09 428.39 C 1561.90 426.51, 1562.69 425.91, 1564.16 425.13 C 1565.63 424.34, 1566.31 424.53, 1567.45 424.46 C 1568.60 424.40, 1569.04 424.68, 1569.88 424.81 C 1570.72 424.94, 1571.21 425.24, 1571.66 425.11 C 1572.11 424.99, 1572.36 424.66, 1572.14 424.19" style="stroke: black; fill: black;"/><path d="M 1593.34,421.62 C 1593.01 422.02, 1592.90 422.32, 1592.54 423.73 C 1592.19 425.14, 1591.89 426.07, 1591.56 428.68 C 1591.24 431.29, 1591.27 433.11, 1590.93 436.77 C 1590.59 440.43, 1590.38 442.82, 1589.87 446.98 C 1589.36 451.15, 1588.99 453.62, 1588.39 457.60 C 1587.79 461.59, 1587.36 463.74, 1586.86 466.90 C 1586.36 470.07, 1586.05 471.48, 1585.87 473.44 C 1585.70 475.40, 1585.74 476.09, 1585.99 476.70 C 1586.25 477.31, 1586.61 477.33, 1587.16 476.49 C 1587.71 475.66, 1588.13 474.86, 1588.74 472.52 C 1589.35 470.17, 1589.43 468.42, 1590.22 464.78 C 1591.02 461.13, 1591.45 458.66, 1592.71 454.29 C 1593.98 449.92, 1594.82 447.19, 1596.56 442.94 C 1598.31 438.69, 1599.46 436.37, 1601.44 433.03 C 1603.41 429.69, 1604.65 428.29, 1606.45 426.22 C 1608.25 424.15, 1609.06 423.43, 1610.43 422.67 C 1611.80 421.92, 1612.38 421.87, 1613.29 422.43 C 1614.21 423.00, 1614.43 423.59, 1615.01 425.49 C 1615.60 427.40, 1615.88 428.82, 1616.24 431.96 C 1616.60 435.10, 1616.80 437.29, 1616.81 441.21 C 1616.82 445.13, 1616.62 447.59, 1616.28 451.56 C 1615.94 455.52, 1615.56 457.72, 1615.11 461.04 C 1614.66 464.35, 1614.25 465.90, 1614.02 468.12 C 1613.80 470.34, 1613.77 471.21, 1614.00 472.15 C 1614.22 473.09, 1614.54 473.28, 1615.16 472.83 C 1615.78 472.37, 1616.27 471.84, 1617.09 469.87 C 1617.90 467.90, 1618.16 466.34, 1619.23 462.98 C 1620.30 459.62, 1620.88 457.22, 1622.44 453.08 C 1624.00 448.93, 1625.04 446.30, 1627.02 442.23 C 1628.99 438.17, 1630.22 435.93, 1632.32 432.75 C 1634.43 429.57, 1635.70 428.24, 1637.54 426.34 C 1639.38 424.43, 1640.18 423.81, 1641.52 423.24 C 1642.86 422.67, 1643.38 422.76, 1644.27 423.50 C 1645.16 424.23, 1645.37 424.91, 1645.96 426.93 C 1646.56 428.95, 1646.87 430.39, 1647.26 433.59 C 1647.65 436.78, 1647.81 438.93, 1647.91 442.93 C 1648.01 446.92, 1647.87 449.38, 1647.75 453.58 C 1647.63 457.79, 1647.46 460.11, 1647.31 463.95 C 1647.16 467.79, 1646.97 469.67, 1647.00 472.78 C 1647.03 475.89, 1647.07 477.28, 1647.45 479.51 C 1647.83 481.73, 1648.30 482.55, 1648.89 483.92 C 1649.48 485.28, 1649.82 485.67, 1650.39 486.33 C 1650.96 486.98, 1651.32 487.04, 1651.75 487.18 C 1652.18 487.33, 1652.38 487.16, 1652.54 487.05 C 1652.71 486.93, 1652.65 486.73, 1652.59 486.59 C 1652.54 486.45, 1652.45 486.57, 1652.26 486.34 C 1652.07 486.11, 1651.97 486.05, 1651.63 485.43 C 1651.29 484.82, 1651.00 484.51, 1650.56 483.26 C 1650.13 482.01, 1649.75 481.29, 1649.46 479.19 C 1649.16 477.09, 1649.14 475.79, 1649.08 472.75 C 1649.03 469.72, 1649.06 467.83, 1649.16 464.01 C 1649.26 460.19, 1649.43 457.87, 1649.59 453.64 C 1649.75 449.42, 1649.93 446.97, 1649.94 442.90 C 1649.96 438.84, 1650.04 436.66, 1649.67 433.31 C 1649.31 429.96, 1649.03 428.36, 1648.12 426.16 C 1647.21 423.95, 1646.54 423.15, 1645.12 422.27 C 1643.70 421.40, 1642.83 421.25, 1641.01 421.77 C 1639.20 422.29, 1638.11 422.87, 1636.07 424.87 C 1634.03 426.86, 1632.93 428.44, 1630.81 431.76 C 1628.69 435.08, 1627.49 437.35, 1625.45 441.47 C 1623.42 445.59, 1622.36 448.22, 1620.63 452.36 C 1618.91 456.50, 1618.01 458.82, 1616.82 462.16 C 1615.63 465.51, 1615.16 467.04, 1614.68 469.09 C 1614.20 471.15, 1614.34 471.83, 1614.42 472.46 C 1614.50 473.08, 1614.73 473.03, 1615.08 472.22 C 1615.42 471.41, 1615.72 470.61, 1616.14 468.43 C 1616.56 466.25, 1616.77 464.65, 1617.19 461.31 C 1617.61 457.97, 1617.88 455.74, 1618.23 451.73 C 1618.58 447.71, 1618.83 445.24, 1618.92 441.23 C 1619.01 437.22, 1619.07 434.99, 1618.70 431.68 C 1618.33 428.38, 1618.02 426.80, 1617.07 424.70 C 1616.13 422.60, 1615.42 421.87, 1613.96 421.17 C 1612.49 420.48, 1611.56 420.48, 1609.75 421.21 C 1607.93 421.95, 1606.86 422.66, 1604.90 424.84 C 1602.93 427.03, 1601.89 428.66, 1599.91 432.15 C 1597.93 435.64, 1596.80 437.98, 1595.01 442.30 C 1593.21 446.62, 1592.37 449.37, 1590.95 453.75 C 1589.53 458.13, 1588.88 460.57, 1587.89 464.21 C 1586.90 467.85, 1586.42 469.54, 1586.02 471.94 C 1585.63 474.34, 1585.79 475.24, 1585.93 476.21 C 1586.06 477.18, 1586.32 477.27, 1586.69 476.77 C 1587.07 476.28, 1587.36 475.66, 1587.81 473.75 C 1588.26 471.84, 1588.46 470.41, 1588.95 467.23 C 1589.44 464.05, 1589.68 461.87, 1590.26 457.88 C 1590.83 453.88, 1591.20 451.41, 1591.80 447.24 C 1592.40 443.08, 1592.74 440.70, 1593.26 437.05 C 1593.79 433.40, 1594.17 431.62, 1594.43 428.99 C 1594.68 426.37, 1594.59 425.40, 1594.54 423.94 C 1594.49 422.48, 1594.42 422.17, 1594.18 421.70 C 1593.94 421.24, 1593.66 421.21, 1593.34 421.62" style="stroke: black; fill: black;"/></svg>